<svg xmlns="http://www.w3.org/2000/svg"><circle r="1.2" fill="#fff"/><circle cx="76.5" r="1.2" fill="#fff"/><circle cx="153" r="1.2" fill="#fff"/><circle cx="229.5" r="1.2" fill="#fff"/><circle cx="306" r="1.2" fill="#fff"/><circle cx="382.5" r="1.2" fill="#fff"/><circle cx="459" r="1.2" fill="#fff"/><circle cx="535.5" r="1.2" fill="#fff"/><circle cx="612" r="1.2" fill="#fff"/><circle cx="688.5" r="1.2" fill="#fff"/><circle cx="765" r="1.2" fill="#fff"/><circle cx="841.5" r="1.2" fill="#fff"/><circle cx="918" r="1.2" fill="#fff"/><circle cx="994.5" r="1.2" fill="#fff"/><circle cx="1071" r="1.2" fill="#fff"/><circle cx="1147.5" r="1.2" fill="#fff"/><circle cx="1224" r="1.2" fill="#fff"/><circle cx="1300.5" r="1.2" fill="#fff"/><circle cx="1377" r="1.2" fill="#fff"/><circle cx="1453.5" r="1.2" fill="#fff"/><circle cx="1530" r="1.2" fill="#fff"/><circle cx="1606.5" r="1.2" fill="#fff"/><circle cx="1683" r="1.2" fill="#fff"/><circle cx="1759.5" r="1.2" fill="#fff"/><circle cy="76.5" r="1.2" fill="#fff"/><circle cx="76.5" cy="76.5" r="1.2" fill="#fff"/><circle cx="153" cy="76.5" r="1.2" fill="#fff"/><circle cx="229.5" cy="76.5" r="1.2" fill="#fff"/><circle cx="306" cy="76.5" r="1.2" fill="#fff"/><circle cx="382.5" cy="76.5" r="1.2" fill="#fff"/><circle cx="459" cy="76.5" r="1.2" fill="#fff"/><circle cx="535.5" cy="76.5" r="1.2" fill="#fff"/><circle cx="612" cy="76.5" r="1.2" fill="#fff"/><circle cx="688.5" cy="76.5" r="1.2" fill="#fff"/><circle cx="765" cy="76.5" r="1.2" fill="#fff"/><circle cx="841.5" cy="76.5" r="1.2" fill="#fff"/><circle cx="918" cy="76.5" r="1.2" fill="#fff"/><circle cx="994.5" cy="76.5" r="1.2" fill="#fff"/><circle cx="1071" cy="76.5" r="1.2" fill="#fff"/><circle cx="1147.5" cy="76.5" r="1.2" fill="#fff"/><circle cx="1224" cy="76.5" r="1.2" fill="#fff"/><circle cx="1300.5" cy="76.5" r="1.2" fill="#fff"/><circle cx="1377" cy="76.5" r="1.2" fill="#fff"/><circle cx="1453.5" cy="76.5" r="1.2" fill="#fff"/><circle cx="1530" cy="76.5" r="1.2" fill="#fff"/><circle cx="1606.5" cy="76.5" r="1.2" fill="#fff"/><circle cx="1683" cy="76.5" r="1.2" fill="#fff"/><circle cx="1759.5" cy="76.5" r="1.2" fill="#fff"/><circle cy="153" r="1.2" fill="#fff"/><circle cx="76.5" cy="153" r="1.2" fill="#fff"/><circle cx="153" cy="153" r="1.2" fill="#fff"/><circle cx="229.5" cy="153" r="1.2" fill="#fff"/><circle cx="306" cy="153" r="1.2" fill="#fff"/><circle cx="382.5" cy="153" r="1.2" fill="#fff"/><circle cx="459" cy="153" r="1.2" fill="#fff"/><circle cx="535.5" cy="153" r="1.2" fill="#fff"/><circle cx="612" cy="153" r="1.2" fill="#fff"/><circle cx="688.5" cy="153" r="1.2" fill="#fff"/><circle cx="765" cy="153" r="1.2" fill="#fff"/><circle cx="841.5" cy="153" r="1.2" fill="#fff"/><circle cx="918" cy="153" r="1.2" fill="#fff"/><circle cx="994.5" cy="153" r="1.2" fill="#fff"/><circle cx="1071" cy="153" r="1.2" fill="#fff"/><circle cx="1147.5" cy="153" r="1.2" fill="#fff"/><circle cx="1224" cy="153" r="1.2" fill="#fff"/><circle cx="1300.5" cy="153" r="1.2" fill="#fff"/><circle cx="1377" cy="153" r="1.2" fill="#fff"/><circle cx="1453.5" cy="153" r="1.2" fill="#fff"/><circle cx="1530" cy="153" r="1.2" fill="#fff"/><circle cx="1606.5" cy="153" r="1.2" fill="#fff"/><circle cx="1683" cy="153" r="1.2" fill="#fff"/><circle cx="1759.5" cy="153" r="1.2" fill="#fff"/><circle cy="229.5" r="1.2" fill="#fff"/><circle cx="76.5" cy="229.5" r="1.2" fill="#fff"/><circle cx="153" cy="229.5" r="1.2" fill="#fff"/><circle cx="229.5" cy="229.5" r="1.2" fill="#fff"/><circle cx="306" cy="229.5" r="1.2" fill="#fff"/><circle cx="382.5" cy="229.5" r="1.2" fill="#fff"/><circle cx="459" cy="229.5" r="1.2" fill="#fff"/><circle cx="535.5" cy="229.5" r="1.2" fill="#fff"/><circle cx="612" cy="229.5" r="1.2" fill="#fff"/><circle cx="688.5" cy="229.5" r="1.2" fill="#fff"/><circle cx="765" cy="229.5" r="1.2" fill="#fff"/><circle cx="841.5" cy="229.5" r="1.2" fill="#fff"/><circle cx="918" cy="229.5" r="1.2" fill="#fff"/><circle cx="994.5" cy="229.5" r="1.2" fill="#fff"/><circle cx="1071" cy="229.5" r="1.2" fill="#fff"/><circle cx="1147.5" cy="229.5" r="1.2" fill="#fff"/><circle cx="1224" cy="229.5" r="1.2" fill="#fff"/><circle cx="1300.5" cy="229.5" r="1.2" fill="#fff"/><circle cx="1377" cy="229.5" r="1.2" fill="#fff"/><circle cx="1453.5" cy="229.5" r="1.2" fill="#fff"/><circle cx="1530" cy="229.5" r="1.2" fill="#fff"/><circle cx="1606.5" cy="229.5" r="1.2" fill="#fff"/><circle cx="1683" cy="229.5" r="1.2" fill="#fff"/><circle cx="1759.5" cy="229.5" r="1.2" fill="#fff"/><circle cy="306" r="1.2" fill="#fff"/><circle cx="76.5" cy="306" r="1.2" fill="#fff"/><circle cx="153" cy="306" r="1.2" fill="#fff"/><circle cx="229.5" cy="306" r="1.2" fill="#fff"/><circle cx="306" cy="306" r="1.2" fill="#fff"/><circle cx="382.5" cy="306" r="1.2" fill="#fff"/><circle cx="459" cy="306" r="1.2" fill="#fff"/><circle cx="535.5" cy="306" r="1.2" fill="#fff"/><circle cx="612" cy="306" r="1.2" fill="#fff"/><circle cx="688.5" cy="306" r="1.2" fill="#fff"/><circle cx="765" cy="306" r="1.2" fill="#fff"/><circle cx="841.5" cy="306" r="1.2" fill="#fff"/><circle cx="918" cy="306" r="1.2" fill="#fff"/><circle cx="994.5" cy="306" r="1.2" fill="#fff"/><circle cx="1071" cy="306" r="1.2" fill="#fff"/><circle cx="1147.5" cy="306" r="1.2" fill="#fff"/><circle cx="1224" cy="306" r="1.2" fill="#fff"/><circle cx="1300.5" cy="306" r="1.2" fill="#fff"/><circle cx="1377" cy="306" r="1.2" fill="#fff"/><circle cx="1453.5" cy="306" r="1.2" fill="#fff"/><circle cx="1530" cy="306" r="1.2" fill="#fff"/><circle cx="1606.5" cy="306" r="1.2" fill="#fff"/><circle cx="1683" cy="306" r="1.2" fill="#fff"/><circle cx="1759.5" cy="306" r="1.2" fill="#fff"/><circle cy="382.5" r="1.2" fill="#fff"/><circle cx="76.5" cy="382.5" r="1.2" fill="#fff"/><circle cx="153" cy="382.5" r="1.2" fill="#fff"/><circle cx="229.5" cy="382.5" r="1.2" fill="#fff"/><circle cx="306" cy="382.5" r="1.2" fill="#fff"/><circle cx="382.5" cy="382.5" r="1.2" fill="#fff"/><circle cx="459" cy="382.5" r="1.2" fill="#fff"/><circle cx="535.5" cy="382.5" r="1.2" fill="#fff"/><circle cx="612" cy="382.5" r="1.2" fill="#fff"/><circle cx="688.5" cy="382.5" r="1.2" fill="#fff"/><circle cx="765" cy="382.5" r="1.2" fill="#fff"/><circle cx="841.5" cy="382.5" r="1.2" fill="#fff"/><circle cx="918" cy="382.5" r="1.2" fill="#fff"/><circle cx="994.5" cy="382.5" r="1.2" fill="#fff"/><circle cx="1071" cy="382.5" r="1.2" fill="#fff"/><circle cx="1147.5" cy="382.5" r="1.2" fill="#fff"/><circle cx="1224" cy="382.5" r="1.2" fill="#fff"/><circle cx="1300.5" cy="382.5" r="1.2" fill="#fff"/><circle cx="1377" cy="382.5" r="1.2" fill="#fff"/><circle cx="1453.5" cy="382.5" r="1.2" fill="#fff"/><circle cx="1530" cy="382.5" r="1.2" fill="#fff"/><circle cx="1606.5" cy="382.5" r="1.2" fill="#fff"/><circle cx="1683" cy="382.5" r="1.2" fill="#fff"/><circle cx="1759.5" cy="382.5" r="1.2" fill="#fff"/><circle cy="459" r="1.2" fill="#fff"/><circle cx="76.5" cy="459" r="1.2" fill="#fff"/><circle cx="153" cy="459" r="1.2" fill="#fff"/><circle cx="229.5" cy="459" r="1.2" fill="#fff"/><circle cx="306" cy="459" r="1.2" fill="#fff"/><circle cx="382.5" cy="459" r="1.2" fill="#fff"/><circle cx="459" cy="459" r="1.2" fill="#fff"/><circle cx="535.5" cy="459" r="1.2" fill="#fff"/><circle cx="612" cy="459" r="1.2" fill="#fff"/><circle cx="688.5" cy="459" r="1.2" fill="#fff"/><circle cx="765" cy="459" r="1.2" fill="#fff"/><circle cx="841.5" cy="459" r="1.2" fill="#fff"/><circle cx="918" cy="459" r="1.2" fill="#fff"/><circle cx="994.5" cy="459" r="1.2" fill="#fff"/><circle cx="1071" cy="459" r="1.2" fill="#fff"/><circle cx="1147.5" cy="459" r="1.2" fill="#fff"/><circle cx="1224" cy="459" r="1.2" fill="#fff"/><circle cx="1300.5" cy="459" r="1.2" fill="#fff"/><circle cx="1377" cy="459" r="1.2" fill="#fff"/><circle cx="1453.5" cy="459" r="1.2" fill="#fff"/><circle cx="1530" cy="459" r="1.2" fill="#fff"/><circle cx="1606.5" cy="459" r="1.2" fill="#fff"/><circle cx="1683" cy="459" r="1.2" fill="#fff"/><circle cx="1759.5" cy="459" r="1.2" fill="#fff"/><circle cy="535.5" r="1.2" fill="#fff"/><circle cx="76.5" cy="535.5" r="1.2" fill="#fff"/><circle cx="153" cy="535.5" r="1.2" fill="#fff"/><circle cx="229.5" cy="535.5" r="1.2" fill="#fff"/><circle cx="306" cy="535.5" r="1.2" fill="#fff"/><circle cx="382.5" cy="535.5" r="1.2" fill="#fff"/><circle cx="459" cy="535.5" r="1.2" fill="#fff"/><circle cx="535.5" cy="535.5" r="1.2" fill="#fff"/><circle cx="612" cy="535.5" r="1.2" fill="#fff"/><circle cx="688.5" cy="535.5" r="1.2" fill="#fff"/><circle cx="765" cy="535.5" r="1.2" fill="#fff"/><circle cx="841.5" cy="535.5" r="1.2" fill="#fff"/><circle cx="918" cy="535.5" r="1.2" fill="#fff"/><circle cx="994.5" cy="535.5" r="1.2" fill="#fff"/><circle cx="1071" cy="535.5" r="1.2" fill="#fff"/><circle cx="1147.5" cy="535.5" r="1.2" fill="#fff"/><circle cx="1224" cy="535.5" r="1.2" fill="#fff"/><circle cx="1300.5" cy="535.5" r="1.2" fill="#fff"/><circle cx="1377" cy="535.5" r="1.2" fill="#fff"/><circle cx="1453.5" cy="535.5" r="1.2" fill="#fff"/><circle cx="1530" cy="535.5" r="1.2" fill="#fff"/><circle cx="1606.5" cy="535.5" r="1.2" fill="#fff"/><circle cx="1683" cy="535.5" r="1.2" fill="#fff"/><circle cx="1759.5" cy="535.5" r="1.2" fill="#fff"/><circle cy="612" r="1.2" fill="#fff"/><circle cx="76.5" cy="612" r="1.2" fill="#fff"/><circle cx="153" cy="612" r="1.2" fill="#fff"/><circle cx="229.5" cy="612" r="1.2" fill="#fff"/><circle cx="306" cy="612" r="1.2" fill="#fff"/><circle cx="382.5" cy="612" r="1.2" fill="#fff"/><circle cx="459" cy="612" r="1.2" fill="#fff"/><circle cx="535.5" cy="612" r="1.2" fill="#fff"/><circle cx="612" cy="612" r="1.2" fill="#fff"/><circle cx="688.5" cy="612" r="1.2" fill="#fff"/><circle cx="765" cy="612" r="1.2" fill="#fff"/><circle cx="841.5" cy="612" r="1.2" fill="#fff"/><circle cx="918" cy="612" r="1.2" fill="#fff"/><circle cx="994.5" cy="612" r="1.2" fill="#fff"/><circle cx="1071" cy="612" r="1.2" fill="#fff"/><circle cx="1147.5" cy="612" r="1.2" fill="#fff"/><circle cx="1224" cy="612" r="1.2" fill="#fff"/><circle cx="1300.5" cy="612" r="1.2" fill="#fff"/><circle cx="1377" cy="612" r="1.2" fill="#fff"/><circle cx="1453.5" cy="612" r="1.2" fill="#fff"/><circle cx="1530" cy="612" r="1.2" fill="#fff"/><circle cx="1606.5" cy="612" r="1.2" fill="#fff"/><circle cx="1683" cy="612" r="1.2" fill="#fff"/><circle cx="1759.5" cy="612" r="1.2" fill="#fff"/><circle cy="688.5" r="1.2" fill="#fff"/><circle cx="76.5" cy="688.5" r="1.2" fill="#fff"/><circle cx="153" cy="688.5" r="1.2" fill="#fff"/><circle cx="229.5" cy="688.5" r="1.2" fill="#fff"/><circle cx="306" cy="688.5" r="1.2" fill="#fff"/><circle cx="382.5" cy="688.5" r="1.2" fill="#fff"/><circle cx="459" cy="688.5" r="1.2" fill="#fff"/><circle cx="535.5" cy="688.5" r="1.2" fill="#fff"/><circle cx="612" cy="688.5" r="1.2" fill="#fff"/><circle cx="688.5" cy="688.5" r="1.2" fill="#fff"/><circle cx="765" cy="688.5" r="1.2" fill="#fff"/><circle cx="841.5" cy="688.5" r="1.2" fill="#fff"/><circle cx="918" cy="688.5" r="1.2" fill="#fff"/><circle cx="994.5" cy="688.5" r="1.2" fill="#fff"/><circle cx="1071" cy="688.5" r="1.2" fill="#fff"/><circle cx="1147.5" cy="688.5" r="1.2" fill="#fff"/><circle cx="1224" cy="688.5" r="1.2" fill="#fff"/><circle cx="1300.5" cy="688.5" r="1.2" fill="#fff"/><circle cx="1377" cy="688.5" r="1.2" fill="#fff"/><circle cx="1453.5" cy="688.5" r="1.2" fill="#fff"/><circle cx="1530" cy="688.5" r="1.2" fill="#fff"/><circle cx="1606.5" cy="688.5" r="1.2" fill="#fff"/><circle cx="1683" cy="688.5" r="1.2" fill="#fff"/><circle cx="1759.5" cy="688.5" r="1.2" fill="#fff"/><circle cy="765" r="1.2" fill="#fff"/><circle cx="76.5" cy="765" r="1.2" fill="#fff"/><circle cx="153" cy="765" r="1.2" fill="#fff"/><circle cx="229.5" cy="765" r="1.2" fill="#fff"/><circle cx="306" cy="765" r="1.2" fill="#fff"/><circle cx="382.5" cy="765" r="1.2" fill="#fff"/><circle cx="459" cy="765" r="1.2" fill="#fff"/><circle cx="535.5" cy="765" r="1.2" fill="#fff"/><circle cx="612" cy="765" r="1.2" fill="#fff"/><circle cx="688.5" cy="765" r="1.2" fill="#fff"/><circle cx="765" cy="765" r="1.2" fill="#fff"/><circle cx="841.5" cy="765" r="1.2" fill="#fff"/><circle cx="918" cy="765" r="1.2" fill="#fff"/><circle cx="994.5" cy="765" r="1.2" fill="#fff"/><circle cx="1071" cy="765" r="1.2" fill="#fff"/><circle cx="1147.5" cy="765" r="1.2" fill="#fff"/><circle cx="1224" cy="765" r="1.2" fill="#fff"/><circle cx="1300.5" cy="765" r="1.2" fill="#fff"/><circle cx="1377" cy="765" r="1.2" fill="#fff"/><circle cx="1453.5" cy="765" r="1.2" fill="#fff"/><circle cx="1530" cy="765" r="1.2" fill="#fff"/><circle cx="1606.5" cy="765" r="1.2" fill="#fff"/><circle cx="1683" cy="765" r="1.2" fill="#fff"/><circle cx="1759.5" cy="765" r="1.2" fill="#fff"/><circle cy="841.5" r="1.2" fill="#fff"/><circle cx="76.5" cy="841.5" r="1.2" fill="#fff"/><circle cx="153" cy="841.5" r="1.2" fill="#fff"/><circle cx="229.5" cy="841.5" r="1.2" fill="#fff"/><circle cx="306" cy="841.5" r="1.2" fill="#fff"/><circle cx="382.5" cy="841.5" r="1.2" fill="#fff"/><circle cx="459" cy="841.5" r="1.2" fill="#fff"/><circle cx="535.5" cy="841.5" r="1.2" fill="#fff"/><circle cx="612" cy="841.5" r="1.2" fill="#fff"/><circle cx="688.5" cy="841.5" r="1.2" fill="#fff"/><circle cx="765" cy="841.5" r="1.2" fill="#fff"/><circle cx="841.5" cy="841.5" r="1.2" fill="#fff"/><circle cx="918" cy="841.5" r="1.2" fill="#fff"/><circle cx="994.5" cy="841.5" r="1.2" fill="#fff"/><circle cx="1071" cy="841.5" r="1.2" fill="#fff"/><circle cx="1147.5" cy="841.5" r="1.2" fill="#fff"/><circle cx="1224" cy="841.5" r="1.2" fill="#fff"/><circle cx="1300.5" cy="841.5" r="1.2" fill="#fff"/><circle cx="1377" cy="841.5" r="1.2" fill="#fff"/><circle cx="1453.5" cy="841.5" r="1.2" fill="#fff"/><circle cx="1530" cy="841.5" r="1.2" fill="#fff"/><circle cx="1606.5" cy="841.5" r="1.2" fill="#fff"/><circle cx="1683" cy="841.5" r="1.2" fill="#fff"/><circle cx="1759.5" cy="841.5" r="1.2" fill="#fff"/><circle cy="918" r="1.2" fill="#fff"/><circle cx="76.5" cy="918" r="1.2" fill="#fff"/><circle cx="153" cy="918" r="1.2" fill="#fff"/><circle cx="229.5" cy="918" r="1.2" fill="#fff"/><circle cx="306" cy="918" r="1.2" fill="#fff"/><circle cx="382.5" cy="918" r="1.2" fill="#fff"/><circle cx="459" cy="918" r="1.2" fill="#fff"/><circle cx="535.5" cy="918" r="1.2" fill="#fff"/><circle cx="612" cy="918" r="1.2" fill="#fff"/><circle cx="688.5" cy="918" r="1.2" fill="#fff"/><circle cx="765" cy="918" r="1.2" fill="#fff"/><circle cx="841.5" cy="918" r="1.2" fill="#fff"/><circle cx="918" cy="918" r="1.2" fill="#fff"/><circle cx="994.5" cy="918" r="1.2" fill="#fff"/><circle cx="1071" cy="918" r="1.2" fill="#fff"/><circle cx="1147.5" cy="918" r="1.2" fill="#fff"/><circle cx="1224" cy="918" r="1.2" fill="#fff"/><circle cx="1300.5" cy="918" r="1.2" fill="#fff"/><circle cx="1377" cy="918" r="1.2" fill="#fff"/><circle cx="1453.5" cy="918" r="1.2" fill="#fff"/><circle cx="1530" cy="918" r="1.2" fill="#fff"/><circle cx="1606.5" cy="918" r="1.2" fill="#fff"/><circle cx="1683" cy="918" r="1.2" fill="#fff"/><circle cx="1759.5" cy="918" r="1.2" fill="#fff"/><circle cy="994.5" r="1.2" fill="#fff"/><circle cx="76.5" cy="994.5" r="1.2" fill="#fff"/><circle cx="153" cy="994.5" r="1.2" fill="#fff"/><circle cx="229.5" cy="994.5" r="1.2" fill="#fff"/><circle cx="306" cy="994.5" r="1.2" fill="#fff"/><circle cx="382.5" cy="994.5" r="1.2" fill="#fff"/><circle cx="459" cy="994.5" r="1.2" fill="#fff"/><circle cx="535.5" cy="994.5" r="1.2" fill="#fff"/><circle cx="612" cy="994.5" r="1.2" fill="#fff"/><circle cx="688.5" cy="994.5" r="1.2" fill="#fff"/><circle cx="765" cy="994.5" r="1.2" fill="#fff"/><circle cx="841.5" cy="994.5" r="1.2" fill="#fff"/><circle cx="918" cy="994.5" r="1.2" fill="#fff"/><circle cx="994.5" cy="994.5" r="1.2" fill="#fff"/><circle cx="1071" cy="994.5" r="1.2" fill="#fff"/><circle cx="1147.5" cy="994.5" r="1.2" fill="#fff"/><circle cx="1224" cy="994.5" r="1.2" fill="#fff"/><circle cx="1300.5" cy="994.5" r="1.2" fill="#fff"/><circle cx="1377" cy="994.5" r="1.2" fill="#fff"/><circle cx="1453.5" cy="994.5" r="1.2" fill="#fff"/><circle cx="1530" cy="994.5" r="1.2" fill="#fff"/><circle cx="1606.5" cy="994.5" r="1.2" fill="#fff"/><circle cx="1683" cy="994.5" r="1.2" fill="#fff"/><circle cx="1759.5" cy="994.5" r="1.2" fill="#fff"/><circle cy="1071" r="1.2" fill="#fff"/><circle cx="76.5" cy="1071" r="1.2" fill="#fff"/><circle cx="153" cy="1071" r="1.2" fill="#fff"/><circle cx="229.5" cy="1071" r="1.2" fill="#fff"/><circle cx="306" cy="1071" r="1.2" fill="#fff"/><circle cx="382.5" cy="1071" r="1.2" fill="#fff"/><circle cx="459" cy="1071" r="1.2" fill="#fff"/><circle cx="535.5" cy="1071" r="1.2" fill="#fff"/><circle cx="612" cy="1071" r="1.2" fill="#fff"/><circle cx="688.5" cy="1071" r="1.2" fill="#fff"/><circle cx="765" cy="1071" r="1.2" fill="#fff"/><circle cx="841.5" cy="1071" r="1.2" fill="#fff"/><circle cx="918" cy="1071" r="1.2" fill="#fff"/><circle cx="994.5" cy="1071" r="1.2" fill="#fff"/><circle cx="1071" cy="1071" r="1.2" fill="#fff"/><circle cx="1147.5" cy="1071" r="1.2" fill="#fff"/><circle cx="1224" cy="1071" r="1.2" fill="#fff"/><circle cx="1300.5" cy="1071" r="1.2" fill="#fff"/><circle cx="1377" cy="1071" r="1.2" fill="#fff"/><circle cx="1453.5" cy="1071" r="1.2" fill="#fff"/><circle cx="1530" cy="1071" r="1.2" fill="#fff"/><circle cx="1606.5" cy="1071" r="1.2" fill="#fff"/><circle cx="1683" cy="1071" r="1.2" fill="#fff"/><circle cx="1759.5" cy="1071" r="1.2" fill="#fff"/><circle cy="1147.5" r="1.2" fill="#fff"/><circle cx="76.5" cy="1147.5" r="1.2" fill="#fff"/><circle cx="153" cy="1147.5" r="1.2" fill="#fff"/><circle cx="229.5" cy="1147.5" r="1.2" fill="#fff"/><circle cx="306" cy="1147.5" r="1.2" fill="#fff"/><circle cx="382.5" cy="1147.5" r="1.2" fill="#fff"/><circle cx="459" cy="1147.5" r="1.2" fill="#fff"/><circle cx="535.5" cy="1147.5" r="1.2" fill="#fff"/><circle cx="612" cy="1147.5" r="1.2" fill="#fff"/><circle cx="688.5" cy="1147.5" r="1.2" fill="#fff"/><circle cx="765" cy="1147.5" r="1.2" fill="#fff"/><circle cx="841.5" cy="1147.5" r="1.2" fill="#fff"/><circle cx="918" cy="1147.5" r="1.2" fill="#fff"/><circle cx="994.5" cy="1147.5" r="1.2" fill="#fff"/><circle cx="1071" cy="1147.5" r="1.2" fill="#fff"/><circle cx="1147.5" cy="1147.5" r="1.2" fill="#fff"/><circle cx="1224" cy="1147.5" r="1.2" fill="#fff"/><circle cx="1300.5" cy="1147.5" r="1.2" fill="#fff"/><circle cx="1377" cy="1147.5" r="1.2" fill="#fff"/><circle cx="1453.5" cy="1147.5" r="1.2" fill="#fff"/><circle cx="1530" cy="1147.5" r="1.2" fill="#fff"/><circle cx="1606.5" cy="1147.5" r="1.2" fill="#fff"/><circle cx="1683" cy="1147.5" r="1.2" fill="#fff"/><circle cx="1759.5" cy="1147.5" r="1.2" fill="#fff"/><circle cy="1224" r="1.2" fill="#fff"/><circle cx="76.5" cy="1224" r="1.2" fill="#fff"/><circle cx="153" cy="1224" r="1.2" fill="#fff"/><circle cx="229.5" cy="1224" r="1.2" fill="#fff"/><circle cx="306" cy="1224" r="1.2" fill="#fff"/><circle cx="382.5" cy="1224" r="1.2" fill="#fff"/><circle cx="459" cy="1224" r="1.2" fill="#fff"/><circle cx="535.5" cy="1224" r="1.2" fill="#fff"/><circle cx="612" cy="1224" r="1.2" fill="#fff"/><circle cx="688.5" cy="1224" r="1.2" fill="#fff"/><circle cx="765" cy="1224" r="1.2" fill="#fff"/><circle cx="841.5" cy="1224" r="1.2" fill="#fff"/><circle cx="918" cy="1224" r="1.2" fill="#fff"/><circle cx="994.5" cy="1224" r="1.2" fill="#fff"/><circle cx="1071" cy="1224" r="1.2" fill="#fff"/><circle cx="1147.5" cy="1224" r="1.2" fill="#fff"/><circle cx="1224" cy="1224" r="1.2" fill="#fff"/><circle cx="1300.5" cy="1224" r="1.2" fill="#fff"/><circle cx="1377" cy="1224" r="1.2" fill="#fff"/><circle cx="1453.5" cy="1224" r="1.2" fill="#fff"/><circle cx="1530" cy="1224" r="1.2" fill="#fff"/><circle cx="1606.5" cy="1224" r="1.2" fill="#fff"/><circle cx="1683" cy="1224" r="1.2" fill="#fff"/><circle cx="1759.5" cy="1224" r="1.2" fill="#fff"/><circle cy="1300.5" r="1.2" fill="#fff"/><circle cx="76.5" cy="1300.5" r="1.2" fill="#fff"/><circle cx="153" cy="1300.5" r="1.2" fill="#fff"/><circle cx="229.5" cy="1300.5" r="1.2" fill="#fff"/><circle cx="306" cy="1300.5" r="1.2" fill="#fff"/><circle cx="382.5" cy="1300.5" r="1.2" fill="#fff"/><circle cx="459" cy="1300.5" r="1.2" fill="#fff"/><circle cx="535.5" cy="1300.5" r="1.2" fill="#fff"/><circle cx="612" cy="1300.5" r="1.2" fill="#fff"/><circle cx="688.5" cy="1300.5" r="1.2" fill="#fff"/><circle cx="765" cy="1300.5" r="1.2" fill="#fff"/><circle cx="841.5" cy="1300.5" r="1.2" fill="#fff"/><circle cx="918" cy="1300.5" r="1.2" fill="#fff"/><circle cx="994.5" cy="1300.5" r="1.2" fill="#fff"/><circle cx="1071" cy="1300.5" r="1.2" fill="#fff"/><circle cx="1147.5" cy="1300.5" r="1.2" fill="#fff"/><circle cx="1224" cy="1300.5" r="1.2" fill="#fff"/><circle cx="1300.5" cy="1300.5" r="1.2" fill="#fff"/><circle cx="1377" cy="1300.5" r="1.2" fill="#fff"/><circle cx="1453.5" cy="1300.5" r="1.2" fill="#fff"/><circle cx="1530" cy="1300.5" r="1.2" fill="#fff"/><circle cx="1606.5" cy="1300.5" r="1.2" fill="#fff"/><circle cx="1683" cy="1300.5" r="1.2" fill="#fff"/><circle cx="1759.5" cy="1300.5" r="1.2" fill="#fff"/><circle cy="1377" r="1.2" fill="#fff"/><circle cx="76.5" cy="1377" r="1.2" fill="#fff"/><circle cx="153" cy="1377" r="1.2" fill="#fff"/><circle cx="229.5" cy="1377" r="1.2" fill="#fff"/><circle cx="306" cy="1377" r="1.2" fill="#fff"/><circle cx="382.5" cy="1377" r="1.2" fill="#fff"/><circle cx="459" cy="1377" r="1.2" fill="#fff"/><circle cx="535.5" cy="1377" r="1.2" fill="#fff"/><circle cx="612" cy="1377" r="1.2" fill="#fff"/><circle cx="688.5" cy="1377" r="1.2" fill="#fff"/><circle cx="765" cy="1377" r="1.2" fill="#fff"/><circle cx="841.5" cy="1377" r="1.2" fill="#fff"/><circle cx="918" cy="1377" r="1.2" fill="#fff"/><circle cx="994.5" cy="1377" r="1.2" fill="#fff"/><circle cx="1071" cy="1377" r="1.2" fill="#fff"/><circle cx="1147.5" cy="1377" r="1.2" fill="#fff"/><circle cx="1224" cy="1377" r="1.2" fill="#fff"/><circle cx="1300.5" cy="1377" r="1.2" fill="#fff"/><circle cx="1377" cy="1377" r="1.2" fill="#fff"/><circle cx="1453.5" cy="1377" r="1.2" fill="#fff"/><circle cx="1530" cy="1377" r="1.2" fill="#fff"/><circle cx="1606.5" cy="1377" r="1.2" fill="#fff"/><circle cx="1683" cy="1377" r="1.2" fill="#fff"/><circle cx="1759.5" cy="1377" r="1.2" fill="#fff"/><circle cy="1453.5" r="1.2" fill="#fff"/><circle cx="76.5" cy="1453.5" r="1.2" fill="#fff"/><circle cx="153" cy="1453.5" r="1.2" fill="#fff"/><circle cx="229.5" cy="1453.5" r="1.2" fill="#fff"/><circle cx="306" cy="1453.5" r="1.2" fill="#fff"/><circle cx="382.5" cy="1453.5" r="1.2" fill="#fff"/><circle cx="459" cy="1453.5" r="1.2" fill="#fff"/><circle cx="535.5" cy="1453.5" r="1.2" fill="#fff"/><circle cx="612" cy="1453.5" r="1.2" fill="#fff"/><circle cx="688.5" cy="1453.5" r="1.2" fill="#fff"/><circle cx="765" cy="1453.5" r="1.2" fill="#fff"/><circle cx="841.5" cy="1453.5" r="1.2" fill="#fff"/><circle cx="918" cy="1453.5" r="1.2" fill="#fff"/><circle cx="994.5" cy="1453.5" r="1.2" fill="#fff"/><circle cx="1071" cy="1453.5" r="1.2" fill="#fff"/><circle cx="1147.5" cy="1453.5" r="1.2" fill="#fff"/><circle cx="1224" cy="1453.5" r="1.2" fill="#fff"/><circle cx="1300.5" cy="1453.5" r="1.2" fill="#fff"/><circle cx="1377" cy="1453.5" r="1.2" fill="#fff"/><circle cx="1453.5" cy="1453.5" r="1.2" fill="#fff"/><circle cx="1530" cy="1453.5" r="1.2" fill="#fff"/><circle cx="1606.5" cy="1453.5" r="1.2" fill="#fff"/><circle cx="1683" cy="1453.5" r="1.2" fill="#fff"/><circle cx="1759.5" cy="1453.5" r="1.2" fill="#fff"/><circle cy="1530" r="1.2" fill="#fff"/><circle cx="76.5" cy="1530" r="1.2" fill="#fff"/><circle cx="153" cy="1530" r="1.2" fill="#fff"/><circle cx="229.5" cy="1530" r="1.2" fill="#fff"/><circle cx="306" cy="1530" r="1.2" fill="#fff"/><circle cx="382.5" cy="1530" r="1.2" fill="#fff"/><circle cx="459" cy="1530" r="1.2" fill="#fff"/><circle cx="535.5" cy="1530" r="1.2" fill="#fff"/><circle cx="612" cy="1530" r="1.2" fill="#fff"/><circle cx="688.5" cy="1530" r="1.2" fill="#fff"/><circle cx="765" cy="1530" r="1.2" fill="#fff"/><circle cx="841.5" cy="1530" r="1.2" fill="#fff"/><circle cx="918" cy="1530" r="1.2" fill="#fff"/><circle cx="994.5" cy="1530" r="1.2" fill="#fff"/><circle cx="1071" cy="1530" r="1.2" fill="#fff"/><circle cx="1147.5" cy="1530" r="1.2" fill="#fff"/><circle cx="1224" cy="1530" r="1.2" fill="#fff"/><circle cx="1300.5" cy="1530" r="1.2" fill="#fff"/><circle cx="1377" cy="1530" r="1.2" fill="#fff"/><circle cx="1453.5" cy="1530" r="1.2" fill="#fff"/><circle cx="1530" cy="1530" r="1.2" fill="#fff"/><circle cx="1606.5" cy="1530" r="1.2" fill="#fff"/><circle cx="1683" cy="1530" r="1.2" fill="#fff"/><circle cx="1759.5" cy="1530" r="1.2" fill="#fff"/><circle cy="1606.5" r="1.2" fill="#fff"/><circle cx="76.5" cy="1606.5" r="1.2" fill="#fff"/><circle cx="153" cy="1606.5" r="1.2" fill="#fff"/><circle cx="229.5" cy="1606.5" r="1.2" fill="#fff"/><circle cx="306" cy="1606.5" r="1.2" fill="#fff"/><circle cx="382.5" cy="1606.5" r="1.2" fill="#fff"/><circle cx="459" cy="1606.5" r="1.2" fill="#fff"/><circle cx="535.5" cy="1606.5" r="1.2" fill="#fff"/><circle cx="612" cy="1606.5" r="1.2" fill="#fff"/><circle cx="688.5" cy="1606.5" r="1.2" fill="#fff"/><circle cx="765" cy="1606.5" r="1.2" fill="#fff"/><circle cx="841.5" cy="1606.5" r="1.2" fill="#fff"/><circle cx="918" cy="1606.5" r="1.2" fill="#fff"/><circle cx="994.5" cy="1606.5" r="1.2" fill="#fff"/><circle cx="1071" cy="1606.5" r="1.2" fill="#fff"/><circle cx="1147.5" cy="1606.5" r="1.2" fill="#fff"/><circle cx="1224" cy="1606.5" r="1.2" fill="#fff"/><circle cx="1300.5" cy="1606.5" r="1.2" fill="#fff"/><circle cx="1377" cy="1606.5" r="1.2" fill="#fff"/><circle cx="1453.5" cy="1606.5" r="1.2" fill="#fff"/><circle cx="1530" cy="1606.5" r="1.2" fill="#fff"/><circle cx="1606.5" cy="1606.5" r="1.2" fill="#fff"/><circle cx="1683" cy="1606.5" r="1.2" fill="#fff"/><circle cx="1759.5" cy="1606.5" r="1.2" fill="#fff"/><circle cy="1683" r="1.2" fill="#fff"/><circle cx="76.5" cy="1683" r="1.2" fill="#fff"/><circle cx="153" cy="1683" r="1.2" fill="#fff"/><circle cx="229.5" cy="1683" r="1.2" fill="#fff"/><circle cx="306" cy="1683" r="1.2" fill="#fff"/><circle cx="382.5" cy="1683" r="1.2" fill="#fff"/><circle cx="459" cy="1683" r="1.2" fill="#fff"/><circle cx="535.5" cy="1683" r="1.2" fill="#fff"/><circle cx="612" cy="1683" r="1.2" fill="#fff"/><circle cx="688.5" cy="1683" r="1.2" fill="#fff"/><circle cx="765" cy="1683" r="1.2" fill="#fff"/><circle cx="841.5" cy="1683" r="1.2" fill="#fff"/><circle cx="918" cy="1683" r="1.2" fill="#fff"/><circle cx="994.5" cy="1683" r="1.2" fill="#fff"/><circle cx="1071" cy="1683" r="1.2" fill="#fff"/><circle cx="1147.5" cy="1683" r="1.2" fill="#fff"/><circle cx="1224" cy="1683" r="1.2" fill="#fff"/><circle cx="1300.5" cy="1683" r="1.2" fill="#fff"/><circle cx="1377" cy="1683" r="1.2" fill="#fff"/><circle cx="1453.5" cy="1683" r="1.2" fill="#fff"/><circle cx="1530" cy="1683" r="1.2" fill="#fff"/><circle cx="1606.5" cy="1683" r="1.2" fill="#fff"/><circle cx="1683" cy="1683" r="1.2" fill="#fff"/><circle cx="1759.5" cy="1683" r="1.2" fill="#fff"/><circle cy="1759.5" r="1.2" fill="#fff"/><circle cx="76.5" cy="1759.5" r="1.2" fill="#fff"/><circle cx="153" cy="1759.5" r="1.2" fill="#fff"/><circle cx="229.5" cy="1759.5" r="1.2" fill="#fff"/><circle cx="306" cy="1759.5" r="1.2" fill="#fff"/><circle cx="382.5" cy="1759.5" r="1.2" fill="#fff"/><circle cx="459" cy="1759.5" r="1.2" fill="#fff"/><circle cx="535.5" cy="1759.5" r="1.2" fill="#fff"/><circle cx="612" cy="1759.5" r="1.2" fill="#fff"/><circle cx="688.5" cy="1759.5" r="1.2" fill="#fff"/><circle cx="765" cy="1759.5" r="1.2" fill="#fff"/><circle cx="841.5" cy="1759.5" r="1.2" fill="#fff"/><circle cx="918" cy="1759.5" r="1.2" fill="#fff"/><circle cx="994.5" cy="1759.5" r="1.2" fill="#fff"/><circle cx="1071" cy="1759.5" r="1.2" fill="#fff"/><circle cx="1147.5" cy="1759.5" r="1.2" fill="#fff"/><circle cx="1224" cy="1759.5" r="1.2" fill="#fff"/><circle cx="1300.5" cy="1759.5" r="1.2" fill="#fff"/><circle cx="1377" cy="1759.5" r="1.2" fill="#fff"/><circle cx="1453.5" cy="1759.5" r="1.2" fill="#fff"/><circle cx="1530" cy="1759.5" r="1.2" fill="#fff"/><circle cx="1606.5" cy="1759.5" r="1.2" fill="#fff"/><circle cx="1683" cy="1759.5" r="1.2" fill="#fff"/><circle cx="1759.5" cy="1759.5" r="1.2" fill="#fff"/></svg>