<svg width="1680" height="473" viewBox="0 0 1680 473" fill="none" data-grid-size="140"><g stroke="#7f69ce"><line x1="0.5" y1="0" x2="0.5" y2="473"></line><line x1="140.5" y1="0" x2="140.5" y2="473"></line><line x1="280.5" y1="0" x2="280.5" y2="473"></line><line x1="420.5" y1="0" x2="420.5" y2="473"></line><line x1="560.5" y1="0" x2="560.5" y2="473"></line><line x1="700.5" y1="0" x2="700.5" y2="473"></line><line x1="840.5" y1="0" x2="840.5" y2="473"></line><line x1="980.5" y1="0" x2="980.5" y2="473"></line><line x1="1120.5" y1="0" x2="1120.5" y2="473"></line><line x1="1260.5" y1="0" x2="1260.5" y2="473"></line><line x1="1400.5" y1="0" x2="1400.5" y2="473"></line><line x1="1540.5" y1="0" x2="1540.5" y2="473"></line><line x1="0" y1="95.5" x2="1680" y2="95.5"></line><line x1="0" y1="235.5" x2="1680" y2="235.5"></line><line x1="0" y1="375.5" x2="1680" y2="375.5"></line><line x1="0" y1="515.5" x2="1680" y2="515.5"></line><line x1="0" y1="655.5" x2="1680" y2="655.5"></line></g></svg>