<svg xmlns="http://www.w3.org/2000/svg"><circle r="1.05" fill="#d6d6d6"/><circle cx="33.75" r="1.05" fill="#d6d6d6"/><circle cx="67.5" r="1.05" fill="#d6d6d6"/><circle cx="101.25" r="1.05" fill="#d6d6d6"/><circle cx="135" r="1.05" fill="#d6d6d6"/><circle cx="168.75" r="1.05" fill="#d6d6d6"/><circle cx="202.5" r="1.05" fill="#d6d6d6"/><circle cx="236.25" r="1.05" fill="#d6d6d6"/><circle cx="270" r="1.05" fill="#d6d6d6"/><circle cx="303.75" r="1.05" fill="#d6d6d6"/><circle cx="337.5" r="1.05" fill="#d6d6d6"/><circle cx="371.25" r="1.05" fill="#d6d6d6"/><circle cx="405" r="1.05" fill="#d6d6d6"/><circle cx="438.75" r="1.05" fill="#d6d6d6"/><circle cx="472.5" r="1.05" fill="#d6d6d6"/><circle cx="506.25" r="1.05" fill="#d6d6d6"/><circle cy="33.75" r="1.05" fill="#d6d6d6"/><circle cx="33.75" cy="33.75" r="1.05" fill="#d6d6d6"/><circle cx="67.5" cy="33.75" r="1.05" fill="#d6d6d6"/><circle cx="101.25" cy="33.75" r="1.05" fill="#d6d6d6"/><circle cx="135" cy="33.75" r="1.05" fill="#d6d6d6"/><circle cx="168.75" cy="33.75" r="1.05" fill="#d6d6d6"/><circle cx="202.5" cy="33.75" r="1.05" fill="#d6d6d6"/><circle cx="236.25" cy="33.75" r="1.05" fill="#d6d6d6"/><circle cx="270" cy="33.75" r="1.05" fill="#d6d6d6"/><circle cx="303.75" cy="33.75" r="1.05" fill="#d6d6d6"/><circle cx="337.5" cy="33.75" r="1.05" fill="#d6d6d6"/><circle cx="371.25" cy="33.75" r="1.05" fill="#d6d6d6"/><circle cx="405" cy="33.75" r="1.05" fill="#d6d6d6"/><circle cx="438.75" cy="33.75" r="1.05" fill="#d6d6d6"/><circle cx="472.5" cy="33.75" r="1.05" fill="#d6d6d6"/><circle cx="506.25" cy="33.75" r="1.05" fill="#d6d6d6"/><circle cy="67.5" r="1.05" fill="#d6d6d6"/><circle cx="33.75" cy="67.5" r="1.05" fill="#d6d6d6"/><circle cx="67.5" cy="67.5" r="1.05" fill="#d6d6d6"/><circle cx="101.25" cy="67.5" r="1.05" fill="#d6d6d6"/><circle cx="135" cy="67.5" r="1.05" fill="#d6d6d6"/><circle cx="168.75" cy="67.5" r="1.05" fill="#d6d6d6"/><circle cx="202.5" cy="67.5" r="1.05" fill="#d6d6d6"/><circle cx="236.25" cy="67.5" r="1.05" fill="#d6d6d6"/><circle cx="270" cy="67.5" r="1.05" fill="#d6d6d6"/><circle cx="303.75" cy="67.5" r="1.05" fill="#d6d6d6"/><circle cx="337.5" cy="67.5" r="1.05" fill="#d6d6d6"/><circle cx="371.25" cy="67.5" r="1.05" fill="#d6d6d6"/><circle cx="405" cy="67.5" r="1.05" fill="#d6d6d6"/><circle cx="438.75" cy="67.5" r="1.05" fill="#d6d6d6"/><circle cx="472.5" cy="67.5" r="1.05" fill="#d6d6d6"/><circle cx="506.25" cy="67.5" r="1.05" fill="#d6d6d6"/><circle cy="101.25" r="1.05" fill="#d6d6d6"/><circle cx="33.75" cy="101.25" r="1.05" fill="#d6d6d6"/><circle cx="67.5" cy="101.25" r="1.05" fill="#d6d6d6"/><circle cx="101.25" cy="101.25" r="1.05" fill="#d6d6d6"/><circle cx="135" cy="101.25" r="1.05" fill="#d6d6d6"/><circle cx="168.75" cy="101.25" r="1.05" fill="#d6d6d6"/><circle cx="202.5" cy="101.25" r="1.05" fill="#d6d6d6"/><circle cx="236.25" cy="101.25" r="1.05" fill="#d6d6d6"/><circle cx="270" cy="101.25" r="1.05" fill="#d6d6d6"/><circle cx="303.75" cy="101.25" r="1.05" fill="#d6d6d6"/><circle cx="337.5" cy="101.25" r="1.05" fill="#d6d6d6"/><circle cx="371.25" cy="101.25" r="1.05" fill="#d6d6d6"/><circle cx="405" cy="101.25" r="1.05" fill="#d6d6d6"/><circle cx="438.75" cy="101.25" r="1.05" fill="#d6d6d6"/><circle cx="472.5" cy="101.25" r="1.05" fill="#d6d6d6"/><circle cx="506.25" cy="101.25" r="1.05" fill="#d6d6d6"/><circle cy="135" r="1.05" fill="#d6d6d6"/><circle cx="33.75" cy="135" r="1.05" fill="#d6d6d6"/><circle cx="67.5" cy="135" r="1.05" fill="#d6d6d6"/><circle cx="101.25" cy="135" r="1.05" fill="#d6d6d6"/><circle cx="135" cy="135" r="1.05" fill="#d6d6d6"/><circle cx="168.75" cy="135" r="1.05" fill="#d6d6d6"/><circle cx="202.5" cy="135" r="1.05" fill="#d6d6d6"/><circle cx="236.25" cy="135" r="1.05" fill="#d6d6d6"/><circle cx="270" cy="135" r="1.05" fill="#d6d6d6"/><circle cx="303.75" cy="135" r="1.05" fill="#d6d6d6"/><circle cx="337.5" cy="135" r="1.05" fill="#d6d6d6"/><circle cx="371.25" cy="135" r="1.05" fill="#d6d6d6"/><circle cx="405" cy="135" r="1.05" fill="#d6d6d6"/><circle cx="438.75" cy="135" r="1.05" fill="#d6d6d6"/><circle cx="472.5" cy="135" r="1.05" fill="#d6d6d6"/><circle cx="506.25" cy="135" r="1.05" fill="#d6d6d6"/><circle cy="168.75" r="1.05" fill="#d6d6d6"/><circle cx="33.75" cy="168.75" r="1.05" fill="#d6d6d6"/><circle cx="67.5" cy="168.75" r="1.05" fill="#d6d6d6"/><circle cx="101.25" cy="168.75" r="1.05" fill="#d6d6d6"/><circle cx="135" cy="168.75" r="1.05" fill="#d6d6d6"/><circle cx="168.75" cy="168.75" r="1.05" fill="#d6d6d6"/><circle cx="202.5" cy="168.75" r="1.05" fill="#d6d6d6"/><circle cx="236.25" cy="168.75" r="1.05" fill="#d6d6d6"/><circle cx="270" cy="168.75" r="1.05" fill="#d6d6d6"/><circle cx="303.75" cy="168.75" r="1.05" fill="#d6d6d6"/><circle cx="337.5" cy="168.75" r="1.05" fill="#d6d6d6"/><circle cx="371.25" cy="168.75" r="1.05" fill="#d6d6d6"/><circle cx="405" cy="168.75" r="1.05" fill="#d6d6d6"/><circle cx="438.75" cy="168.75" r="1.05" fill="#d6d6d6"/><circle cx="472.5" cy="168.75" r="1.05" fill="#d6d6d6"/><circle cx="506.25" cy="168.75" r="1.05" fill="#d6d6d6"/><circle cy="202.5" r="1.05" fill="#d6d6d6"/><circle cx="33.75" cy="202.5" r="1.05" fill="#d6d6d6"/><circle cx="67.5" cy="202.5" r="1.05" fill="#d6d6d6"/><circle cx="101.25" cy="202.5" r="1.05" fill="#d6d6d6"/><circle cx="135" cy="202.5" r="1.05" fill="#d6d6d6"/><circle cx="168.75" cy="202.5" r="1.05" fill="#d6d6d6"/><circle cx="202.5" cy="202.5" r="1.05" fill="#d6d6d6"/><circle cx="236.25" cy="202.5" r="1.05" fill="#d6d6d6"/><circle cx="270" cy="202.5" r="1.05" fill="#d6d6d6"/><circle cx="303.75" cy="202.5" r="1.05" fill="#d6d6d6"/><circle cx="337.5" cy="202.5" r="1.05" fill="#d6d6d6"/><circle cx="371.25" cy="202.5" r="1.05" fill="#d6d6d6"/><circle cx="405" cy="202.5" r="1.05" fill="#d6d6d6"/><circle cx="438.75" cy="202.5" r="1.05" fill="#d6d6d6"/><circle cx="472.5" cy="202.5" r="1.05" fill="#d6d6d6"/><circle cx="506.25" cy="202.5" r="1.05" fill="#d6d6d6"/><circle cy="236.25" r="1.05" fill="#d6d6d6"/><circle cx="33.75" cy="236.25" r="1.05" fill="#d6d6d6"/><circle cx="67.5" cy="236.25" r="1.05" fill="#d6d6d6"/><circle cx="101.25" cy="236.25" r="1.05" fill="#d6d6d6"/><circle cx="135" cy="236.25" r="1.05" fill="#d6d6d6"/><circle cx="168.75" cy="236.25" r="1.05" fill="#d6d6d6"/><circle cx="202.5" cy="236.25" r="1.05" fill="#d6d6d6"/><circle cx="236.25" cy="236.25" r="1.05" fill="#d6d6d6"/><circle cx="270" cy="236.25" r="1.05" fill="#d6d6d6"/><circle cx="303.75" cy="236.25" r="1.05" fill="#d6d6d6"/><circle cx="337.5" cy="236.25" r="1.05" fill="#d6d6d6"/><circle cx="371.25" cy="236.25" r="1.05" fill="#d6d6d6"/><circle cx="405" cy="236.25" r="1.05" fill="#d6d6d6"/><circle cx="438.75" cy="236.25" r="1.05" fill="#d6d6d6"/><circle cx="472.5" cy="236.25" r="1.05" fill="#d6d6d6"/><circle cx="506.25" cy="236.25" r="1.05" fill="#d6d6d6"/><circle cy="270" r="1.05" fill="#d6d6d6"/><circle cx="33.75" cy="270" r="1.05" fill="#d6d6d6"/><circle cx="67.5" cy="270" r="1.05" fill="#d6d6d6"/><circle cx="101.25" cy="270" r="1.05" fill="#d6d6d6"/><circle cx="135" cy="270" r="1.05" fill="#d6d6d6"/><circle cx="168.75" cy="270" r="1.05" fill="#d6d6d6"/><circle cx="202.5" cy="270" r="1.05" fill="#d6d6d6"/><circle cx="236.25" cy="270" r="1.05" fill="#d6d6d6"/><circle cx="270" cy="270" r="1.05" fill="#d6d6d6"/><circle cx="303.75" cy="270" r="1.05" fill="#d6d6d6"/><circle cx="337.5" cy="270" r="1.05" fill="#d6d6d6"/><circle cx="371.25" cy="270" r="1.05" fill="#d6d6d6"/><circle cx="405" cy="270" r="1.05" fill="#d6d6d6"/><circle cx="438.75" cy="270" r="1.05" fill="#d6d6d6"/><circle cx="472.5" cy="270" r="1.05" fill="#d6d6d6"/><circle cx="506.25" cy="270" r="1.05" fill="#d6d6d6"/><circle cy="303.75" r="1.05" fill="#d6d6d6"/><circle cx="33.75" cy="303.75" r="1.05" fill="#d6d6d6"/><circle cx="67.5" cy="303.75" r="1.05" fill="#d6d6d6"/><circle cx="101.25" cy="303.75" r="1.05" fill="#d6d6d6"/><circle cx="135" cy="303.75" r="1.05" fill="#d6d6d6"/><circle cx="168.75" cy="303.75" r="1.05" fill="#d6d6d6"/><circle cx="202.5" cy="303.75" r="1.05" fill="#d6d6d6"/><circle cx="236.25" cy="303.75" r="1.05" fill="#d6d6d6"/><circle cx="270" cy="303.75" r="1.05" fill="#d6d6d6"/><circle cx="303.75" cy="303.75" r="1.05" fill="#d6d6d6"/><circle cx="337.5" cy="303.75" r="1.05" fill="#d6d6d6"/><circle cx="371.25" cy="303.75" r="1.05" fill="#d6d6d6"/><circle cx="405" cy="303.75" r="1.05" fill="#d6d6d6"/><circle cx="438.75" cy="303.75" r="1.05" fill="#d6d6d6"/><circle cx="472.5" cy="303.75" r="1.05" fill="#d6d6d6"/><circle cx="506.25" cy="303.75" r="1.05" fill="#d6d6d6"/><circle cy="337.5" r="1.05" fill="#d6d6d6"/><circle cx="33.75" cy="337.5" r="1.05" fill="#d6d6d6"/><circle cx="67.5" cy="337.5" r="1.05" fill="#d6d6d6"/><circle cx="101.25" cy="337.5" r="1.05" fill="#d6d6d6"/><circle cx="135" cy="337.5" r="1.05" fill="#d6d6d6"/><circle cx="168.75" cy="337.5" r="1.05" fill="#d6d6d6"/><circle cx="202.5" cy="337.5" r="1.05" fill="#d6d6d6"/><circle cx="236.25" cy="337.5" r="1.05" fill="#d6d6d6"/><circle cx="270" cy="337.5" r="1.05" fill="#d6d6d6"/><circle cx="303.75" cy="337.5" r="1.05" fill="#d6d6d6"/><circle cx="337.5" cy="337.5" r="1.05" fill="#d6d6d6"/><circle cx="371.25" cy="337.5" r="1.05" fill="#d6d6d6"/><circle cx="405" cy="337.5" r="1.05" fill="#d6d6d6"/><circle cx="438.75" cy="337.5" r="1.05" fill="#d6d6d6"/><circle cx="472.5" cy="337.5" r="1.05" fill="#d6d6d6"/><circle cx="506.25" cy="337.5" r="1.05" fill="#d6d6d6"/><circle cy="371.25" r="1.05" fill="#d6d6d6"/><circle cx="33.75" cy="371.25" r="1.05" fill="#d6d6d6"/><circle cx="67.5" cy="371.25" r="1.05" fill="#d6d6d6"/><circle cx="101.25" cy="371.25" r="1.05" fill="#d6d6d6"/><circle cx="135" cy="371.25" r="1.05" fill="#d6d6d6"/><circle cx="168.75" cy="371.25" r="1.05" fill="#d6d6d6"/><circle cx="202.5" cy="371.25" r="1.05" fill="#d6d6d6"/><circle cx="236.25" cy="371.25" r="1.05" fill="#d6d6d6"/><circle cx="270" cy="371.25" r="1.05" fill="#d6d6d6"/><circle cx="303.75" cy="371.25" r="1.05" fill="#d6d6d6"/><circle cx="337.5" cy="371.25" r="1.05" fill="#d6d6d6"/><circle cx="371.25" cy="371.25" r="1.05" fill="#d6d6d6"/><circle cx="405" cy="371.25" r="1.05" fill="#d6d6d6"/><circle cx="438.75" cy="371.25" r="1.05" fill="#d6d6d6"/><circle cx="472.5" cy="371.25" r="1.05" fill="#d6d6d6"/><circle cx="506.25" cy="371.25" r="1.05" fill="#d6d6d6"/><circle cy="405" r="1.05" fill="#d6d6d6"/><circle cx="33.75" cy="405" r="1.05" fill="#d6d6d6"/><circle cx="67.5" cy="405" r="1.05" fill="#d6d6d6"/><circle cx="101.25" cy="405" r="1.05" fill="#d6d6d6"/><circle cx="135" cy="405" r="1.05" fill="#d6d6d6"/><circle cx="168.75" cy="405" r="1.05" fill="#d6d6d6"/><circle cx="202.5" cy="405" r="1.05" fill="#d6d6d6"/><circle cx="236.25" cy="405" r="1.05" fill="#d6d6d6"/><circle cx="270" cy="405" r="1.05" fill="#d6d6d6"/><circle cx="303.75" cy="405" r="1.05" fill="#d6d6d6"/><circle cx="337.5" cy="405" r="1.05" fill="#d6d6d6"/><circle cx="371.25" cy="405" r="1.05" fill="#d6d6d6"/><circle cx="405" cy="405" r="1.05" fill="#d6d6d6"/><circle cx="438.75" cy="405" r="1.05" fill="#d6d6d6"/><circle cx="472.5" cy="405" r="1.05" fill="#d6d6d6"/><circle cx="506.25" cy="405" r="1.05" fill="#d6d6d6"/><circle cy="438.75" r="1.05" fill="#d6d6d6"/><circle cx="33.75" cy="438.75" r="1.05" fill="#d6d6d6"/><circle cx="67.5" cy="438.75" r="1.05" fill="#d6d6d6"/><circle cx="101.25" cy="438.75" r="1.05" fill="#d6d6d6"/><circle cx="135" cy="438.75" r="1.05" fill="#d6d6d6"/><circle cx="168.75" cy="438.75" r="1.05" fill="#d6d6d6"/><circle cx="202.5" cy="438.75" r="1.05" fill="#d6d6d6"/><circle cx="236.25" cy="438.75" r="1.05" fill="#d6d6d6"/><circle cx="270" cy="438.75" r="1.05" fill="#d6d6d6"/><circle cx="303.75" cy="438.75" r="1.05" fill="#d6d6d6"/><circle cx="337.5" cy="438.75" r="1.05" fill="#d6d6d6"/><circle cx="371.25" cy="438.75" r="1.05" fill="#d6d6d6"/><circle cx="405" cy="438.75" r="1.05" fill="#d6d6d6"/><circle cx="438.75" cy="438.75" r="1.05" fill="#d6d6d6"/><circle cx="472.5" cy="438.75" r="1.05" fill="#d6d6d6"/><circle cx="506.25" cy="438.75" r="1.05" fill="#d6d6d6"/><circle cy="472.5" r="1.05" fill="#d6d6d6"/><circle cx="33.75" cy="472.5" r="1.05" fill="#d6d6d6"/><circle cx="67.5" cy="472.5" r="1.05" fill="#d6d6d6"/><circle cx="101.25" cy="472.5" r="1.05" fill="#d6d6d6"/><circle cx="135" cy="472.5" r="1.05" fill="#d6d6d6"/><circle cx="168.75" cy="472.5" r="1.05" fill="#d6d6d6"/><circle cx="202.5" cy="472.5" r="1.05" fill="#d6d6d6"/><circle cx="236.25" cy="472.5" r="1.05" fill="#d6d6d6"/><circle cx="270" cy="472.5" r="1.05" fill="#d6d6d6"/><circle cx="303.75" cy="472.5" r="1.05" fill="#d6d6d6"/><circle cx="337.5" cy="472.5" r="1.05" fill="#d6d6d6"/><circle cx="371.25" cy="472.5" r="1.05" fill="#d6d6d6"/><circle cx="405" cy="472.5" r="1.05" fill="#d6d6d6"/><circle cx="438.75" cy="472.5" r="1.05" fill="#d6d6d6"/><circle cx="472.5" cy="472.5" r="1.05" fill="#d6d6d6"/><circle cx="506.25" cy="472.5" r="1.05" fill="#d6d6d6"/><circle cy="506.25" r="1.05" fill="#d6d6d6"/><circle cx="33.75" cy="506.25" r="1.05" fill="#d6d6d6"/><circle cx="67.5" cy="506.25" r="1.05" fill="#d6d6d6"/><circle cx="101.25" cy="506.25" r="1.05" fill="#d6d6d6"/><circle cx="135" cy="506.25" r="1.05" fill="#d6d6d6"/><circle cx="168.75" cy="506.25" r="1.05" fill="#d6d6d6"/><circle cx="202.5" cy="506.25" r="1.05" fill="#d6d6d6"/><circle cx="236.25" cy="506.25" r="1.05" fill="#d6d6d6"/><circle cx="270" cy="506.25" r="1.05" fill="#d6d6d6"/><circle cx="303.75" cy="506.25" r="1.05" fill="#d6d6d6"/><circle cx="337.5" cy="506.25" r="1.05" fill="#d6d6d6"/><circle cx="371.25" cy="506.25" r="1.05" fill="#d6d6d6"/><circle cx="405" cy="506.25" r="1.05" fill="#d6d6d6"/><circle cx="438.75" cy="506.25" r="1.05" fill="#d6d6d6"/><circle cx="472.5" cy="506.25" r="1.05" fill="#d6d6d6"/><circle cx="506.25" cy="506.25" r="1.05" fill="#d6d6d6"/></svg>