<svg width="31" height="10" viewBox="0 0 31 10" fill="none" xmlns="http://www.w3.org/2000/svg">
<path d="M4.83398 5.0918C4.91602 5.71289 5.00977 6.27539 5.11523 6.7793C5.2832 7.58789 5.43945 8.23633 5.58398 8.72461C5.72852 9.21289 5.80469 9.46484 5.8125 9.48047C5.82422 9.51172 5.82227 9.54102 5.80664 9.56836C5.79492 9.59961 5.77344 9.62109 5.74219 9.63281C5.73047 9.63672 5.71875 9.63867 5.70703 9.63867C5.65625 9.63867 5.61914 9.61133 5.5957 9.55664C5.58398 9.53711 5.50586 9.28125 5.36133 8.78906C5.2168 8.29688 5.05859 7.64258 4.88672 6.82617C4.78906 6.37695 4.70312 5.88086 4.62891 5.33789C3.79297 6.33008 3.05469 7.13867 2.41406 7.76367C1.72656 8.43555 1.1875 8.92383 0.796875 9.22852C0.40625 9.53711 0.205078 9.69141 0.193359 9.69141C0.169922 9.70312 0.148438 9.70898 0.128906 9.70898C0.0898438 9.70898 0.0566406 9.69141 0.0292969 9.65625C0.00976562 9.62891 0.00390625 9.59961 0.0117188 9.56836C0.0195312 9.54102 0.0351562 9.51758 0.0585938 9.49805C0.0742188 9.49805 0.273437 9.3457 0.65625 9.04102C1.04297 8.74023 1.57617 8.25781 2.25586 7.59375C2.92773 6.9375 3.70312 6.08008 4.58203 5.02148C4.54688 4.74023 4.51562 4.44922 4.48828 4.14844C4.38281 3.12109 4.375 2.0625 4.46484 0.972656C4.46875 0.941406 4.48242 0.916016 4.50586 0.896484C4.5293 0.873047 4.55859 0.863281 4.59375 0.867188C4.625 0.871094 4.65039 0.884766 4.66992 0.908203C4.68945 0.931641 4.69922 0.960938 4.69922 0.996094C4.60938 2.07031 4.61719 3.11523 4.72266 4.13086C4.74219 4.34961 4.76562 4.5625 4.79297 4.76953C5.625 3.78125 6.375 2.96289 7.04297 2.31445C7.75391 1.62305 8.31641 1.11328 8.73047 0.785156C9.14844 0.453125 9.36523 0.287109 9.38086 0.287109C9.4082 0.267578 9.4375 0.261719 9.46875 0.269531C9.5 0.273438 9.52539 0.289062 9.54492 0.316406C9.56445 0.347656 9.57031 0.378906 9.5625 0.410156C9.55859 0.4375 9.54297 0.460938 9.51562 0.480469C9.5 0.484375 9.28516 0.648438 8.87109 0.972656C8.46094 1.29687 7.9043 1.80078 7.20117 2.48438C6.50195 3.16016 5.71289 4.0293 4.83398 5.0918ZM7.06641 6.48633C6.99609 6.48633 6.93555 6.46875 6.88477 6.43359C6.82227 6.37891 6.78711 6.3125 6.7793 6.23438C6.76758 6.15234 6.76953 6.07422 6.78516 6C6.79688 5.92188 6.81055 5.86133 6.82617 5.81836C6.91211 5.5293 7.09375 5.13672 7.37109 4.64062C7.38672 4.61328 7.41016 4.5957 7.44141 4.58789C7.47266 4.57617 7.50195 4.57812 7.5293 4.59375C7.55664 4.61328 7.57422 4.63867 7.58203 4.66992C7.59375 4.69727 7.5918 4.72656 7.57617 4.75781C7.50195 4.88672 7.43555 5.00781 7.37695 5.12109C7.32227 5.23047 7.27344 5.33008 7.23047 5.41992C7.19141 5.50977 7.1582 5.58984 7.13086 5.66016C7.10352 5.73047 7.08203 5.79492 7.06641 5.85352C7.04688 5.9082 7.0332 5.95703 7.02539 6C7.01367 6.03906 7.00781 6.07422 7.00781 6.10547C7.00391 6.13281 7.00391 6.15625 7.00781 6.17578C7.00781 6.19141 7.00977 6.20508 7.01367 6.2168C7.01758 6.22461 7.02148 6.23242 7.02539 6.24023C7.02539 6.24414 7.02539 6.24609 7.02539 6.24609C7.02539 6.24609 7.0293 6.24805 7.03711 6.25195C7.04102 6.25195 7.04883 6.25195 7.06055 6.25195C7.06836 6.25195 7.08203 6.25195 7.10156 6.25195C7.12109 6.24805 7.14453 6.24219 7.17188 6.23438C7.19922 6.22656 7.23047 6.21484 7.26562 6.19922C7.30469 6.17969 7.34766 6.15625 7.39453 6.12891C7.44531 6.10156 7.50195 6.06641 7.56445 6.02344C7.88477 5.80469 8.24805 5.49023 8.6543 5.08008C8.67773 5.05664 8.70508 5.04492 8.73633 5.04492C8.76758 5.04492 8.79688 5.05469 8.82422 5.07422C8.84766 5.10156 8.85938 5.13086 8.85938 5.16211C8.85938 5.19336 8.84766 5.2207 8.82422 5.24414C8.6875 5.38477 8.51172 5.55078 8.29688 5.74219C8.08594 5.93359 7.86914 6.10352 7.64648 6.25195C7.42383 6.40039 7.23047 6.47852 7.06641 6.48633ZM7.73438 4.24219C7.71484 4.24219 7.69727 4.23828 7.68164 4.23047C7.65039 4.21484 7.62891 4.19336 7.61719 4.16602C7.60938 4.13477 7.61328 4.10352 7.62891 4.07227L7.71094 3.91406C7.72656 3.88672 7.74805 3.86914 7.77539 3.86133C7.80664 3.84961 7.83594 3.84961 7.86328 3.86133C7.89453 3.87695 7.91406 3.90039 7.92188 3.93164C7.93359 3.96289 7.93164 3.99219 7.91602 4.01953L7.83984 4.17773C7.8125 4.2207 7.77734 4.24219 7.73438 4.24219ZM8.39062 6.55078C8.35156 6.55078 8.31641 6.54492 8.28516 6.5332C8.25391 6.52148 8.2207 6.49219 8.18555 6.44531C8.15039 6.39453 8.13281 6.31641 8.13281 6.21094C8.14844 5.96484 8.25391 5.68555 8.44922 5.37305C8.64062 5.05664 8.86914 4.84375 9.13477 4.73438C9.22461 4.69922 9.32812 4.69141 9.44531 4.71094C9.5625 4.72656 9.68359 4.80078 9.80859 4.93359C9.88672 4.83203 9.94922 4.74805 9.99609 4.68164C10.043 4.61523 10.0684 4.58203 10.0723 4.58203C10.0879 4.55469 10.1094 4.53906 10.1367 4.53516C10.168 4.52734 10.1973 4.53125 10.2246 4.54688C10.252 4.5625 10.2695 4.58398 10.2773 4.61133C10.2852 4.63867 10.2832 4.66602 10.2715 4.69336C10.0957 5.11914 10.002 5.43945 9.99023 5.6543C9.98242 5.86914 10.0195 5.99805 10.1016 6.04102C10.2188 6.10742 10.4121 6.05859 10.6816 5.89453C10.9551 5.72656 11.252 5.44922 11.5723 5.0625C11.5918 5.03516 11.6172 5.01953 11.6484 5.01562C11.6797 5.01172 11.709 5.02148 11.7363 5.04492C11.7598 5.06445 11.7734 5.08984 11.7773 5.12109C11.7812 5.15234 11.7734 5.18164 11.7539 5.20898C11.1641 5.91602 10.6504 6.28125 10.2129 6.30469C10.123 6.30469 10.0449 6.2832 9.97852 6.24023C9.88867 6.19727 9.82227 6.10352 9.7793 5.95898C9.73633 5.81445 9.74805 5.59766 9.81445 5.30859C9.61914 5.55859 9.41211 5.79688 9.19336 6.02344C8.83789 6.37891 8.57031 6.55469 8.39062 6.55078ZM8.38477 6.31641C8.38477 6.31641 8.39258 6.31641 8.4082 6.31641C8.41992 6.31641 8.44141 6.31055 8.47266 6.29883C8.50391 6.2832 8.54492 6.25977 8.5957 6.22852C8.64258 6.19727 8.70117 6.15234 8.77148 6.09375C8.8418 6.03125 8.92578 5.95117 9.02344 5.85352C9.25 5.62305 9.46289 5.37891 9.66211 5.12109C9.6543 5.11328 9.64648 5.10547 9.63867 5.09766C9.52539 4.96484 9.40039 4.91211 9.26367 4.93945C9.08789 4.98633 8.91992 5.11719 8.75977 5.33203C8.59961 5.54297 8.48242 5.76562 8.4082 6C8.37695 6.10938 8.36328 6.18945 8.36719 6.24023C8.37109 6.28711 8.37695 6.3125 8.38477 6.31641ZM10.9395 6.91992C10.9238 6.91992 10.9062 6.91602 10.8867 6.9082C10.8594 6.89258 10.8418 6.87109 10.834 6.84375C10.8223 6.81641 10.8223 6.78711 10.834 6.75586L11.8184 4.5C11.8301 4.47266 11.8496 4.45312 11.877 4.44141C11.9082 4.42969 11.9395 4.42969 11.9707 4.44141C12.002 4.45312 12.0234 4.47461 12.0352 4.50586C12.0469 4.5332 12.0449 4.5625 12.0293 4.59375L11.6074 5.56641C11.748 5.37109 11.877 5.21875 11.9941 5.10938C12.1348 4.97656 12.25 4.88477 12.3398 4.83398C12.4297 4.7793 12.502 4.75 12.5566 4.74609C12.6113 4.73828 12.6543 4.74219 12.6855 4.75781C12.7129 4.76953 12.7422 4.79297 12.7734 4.82812C12.8047 4.86328 12.8203 4.92188 12.8203 5.00391C12.8203 5.03125 12.8184 5.06445 12.8145 5.10352C12.8066 5.2168 12.8086 5.35742 12.8203 5.52539C12.832 5.69336 12.877 5.81445 12.9551 5.88867C12.959 5.89258 12.9668 5.89844 12.9785 5.90625C12.9941 5.91406 13.0137 5.91992 13.0371 5.92383C13.0645 5.92773 13.0996 5.92383 13.1426 5.91211C13.2715 5.87695 13.4043 5.81641 13.541 5.73047C13.6777 5.64453 13.8027 5.55273 13.916 5.45508C14.0332 5.35742 14.127 5.27344 14.1973 5.20312C14.2676 5.12891 14.3047 5.08984 14.3086 5.08594C14.332 5.0625 14.3594 5.05078 14.3906 5.05078C14.4219 5.04688 14.4492 5.05664 14.4727 5.08008C14.4961 5.10352 14.5078 5.13086 14.5078 5.16211C14.5117 5.19336 14.502 5.2207 14.4785 5.24414C14.4668 5.26367 14.3965 5.33594 14.2676 5.46094C14.1387 5.58203 13.9785 5.71094 13.7871 5.84766C13.5957 5.98438 13.3984 6.08203 13.1953 6.14062C13.1016 6.16016 13.0215 6.16211 12.9551 6.14648C12.8926 6.12695 12.8438 6.10156 12.8086 6.07031C12.6875 5.96094 12.6172 5.80859 12.5977 5.61328C12.5781 5.41797 12.5723 5.24609 12.5801 5.09766C12.5801 5.09766 12.5801 5.0957 12.5801 5.0918C12.584 5.05664 12.5859 5.02734 12.5859 5.00391C12.5859 4.99219 12.584 4.98438 12.5801 4.98047C12.5645 4.98047 12.5215 5 12.4512 5.03906C12.3848 5.07812 12.2852 5.1582 12.1523 5.2793C12.0547 5.37305 11.9434 5.50586 11.8184 5.67773C11.6934 5.8457 11.5723 6.01953 11.4551 6.19922C11.3379 6.37891 11.2422 6.5332 11.168 6.66211C11.0898 6.78711 11.0469 6.85352 11.0391 6.86133C11.0117 6.90039 10.9785 6.91992 10.9395 6.91992ZM20.1973 9.41602C20.1973 9.41602 20.1953 9.41602 20.1914 9.41602C20.1602 9.41602 20.1328 9.4043 20.1094 9.38086C20.0898 9.35742 20.0801 9.32812 20.0801 9.29297C20.0762 9.26562 20.1055 9.01367 20.168 8.53711C20.2344 8.06055 20.375 7.40039 20.5898 6.55664C20.832 5.7207 21.1719 4.71484 21.6094 3.53906C21.8477 2.88672 22.0605 2.2832 22.248 1.72852C22.4395 1.16992 22.5352 0.804687 22.5352 0.632812C22.5352 0.578125 22.5312 0.546875 22.5234 0.539062C22.5 0.539062 22.4453 0.572266 22.3594 0.638672C22.2773 0.705078 22.1621 0.826172 22.0137 1.00195C21.7363 1.33398 21.459 1.74219 21.1816 2.22656C20.8965 2.73047 20.5078 3.45508 20.0156 4.40039C19.4961 5.39648 19.0586 6.2168 18.7031 6.86133C18.3516 7.50195 18.1113 7.89258 17.9824 8.0332C17.9512 8.06055 17.9219 8.07812 17.8945 8.08594C17.8711 8.09375 17.8496 8.0957 17.8301 8.0918C17.8145 8.08398 17.8027 8.07812 17.7949 8.07422C17.709 8.02734 17.6953 7.87695 17.7539 7.62305C17.7891 7.44336 17.8516 7.1875 17.9414 6.85547C18.1133 6.19922 18.3184 5.46875 18.5566 4.66406C18.7207 4.08984 18.8691 3.56445 19.002 3.08789C19.1348 2.60742 19.2012 2.32031 19.2012 2.22656C19.2012 2.13281 19.1973 2.07617 19.1895 2.05664C19.166 2.06836 19.123 2.10938 19.0605 2.17969C18.998 2.25 18.9082 2.37109 18.791 2.54297C18.6738 2.71484 18.5215 2.95898 18.334 3.27539C18.084 3.7168 17.834 4.21289 17.584 4.76367C17.3379 5.31445 17.1152 5.82812 16.916 6.30469C16.5957 7.07422 16.4023 7.48828 16.3359 7.54688C16.2852 7.58984 16.2324 7.59766 16.1777 7.57031C16.1348 7.54297 16.1172 7.49805 16.125 7.43555C16.1328 7.37305 16.1562 7.27344 16.1953 7.13672C16.25 6.96094 16.3301 6.70898 16.4355 6.38086C16.6152 5.83008 16.8691 5.07617 17.1973 4.11914C17.4785 3.30273 17.7305 2.57617 17.9531 1.93945C18.1758 1.29883 18.3008 0.939453 18.3281 0.861328C18.3281 0.857422 18.3281 0.855469 18.3281 0.855469C18.3398 0.824219 18.3594 0.802734 18.3867 0.791016C18.418 0.775391 18.4492 0.773438 18.4805 0.785156C18.5117 0.796875 18.5332 0.816406 18.5449 0.84375C18.5605 0.871094 18.5625 0.900391 18.5508 0.931641C18.2773 1.71289 17.9863 2.54883 17.6777 3.43945C17.373 4.32617 17.0996 5.12695 16.8574 5.8418C17.252 4.88867 17.6777 3.99414 18.1348 3.1582C18.4082 2.68164 18.6309 2.33594 18.8027 2.12109C18.9902 1.88281 19.1426 1.7832 19.2598 1.82227C19.3184 1.83789 19.3594 1.87305 19.3828 1.92773C19.4102 1.97852 19.4258 2.0332 19.4297 2.0918C19.4336 2.14648 19.4355 2.19141 19.4355 2.22656C19.4355 2.33203 19.377 2.59961 19.2598 3.0293C19.1465 3.45508 18.9863 4.02148 18.7793 4.72852C18.627 5.25195 18.4746 5.78711 18.3223 6.33398C18.1699 6.87695 18.0605 7.30664 17.9941 7.62305C18.1973 7.29883 18.4668 6.82422 18.8027 6.19922C19.1387 5.57031 19.4746 4.93359 19.8105 4.28906C20.3027 3.34375 20.6914 2.61719 20.9766 2.10938C21.2734 1.60156 21.5664 1.17383 21.8555 0.826172C22 0.654297 22.1211 0.53125 22.2188 0.457031C22.3164 0.378906 22.3945 0.332031 22.4531 0.316406C22.5117 0.300781 22.5586 0.298828 22.5938 0.310547C22.6367 0.318359 22.6758 0.345703 22.7109 0.392578C22.75 0.439453 22.7695 0.519531 22.7695 0.632812C22.7695 0.824219 22.6777 1.19141 22.4941 1.73438C22.3105 2.27734 22.0898 2.90625 21.832 3.62109C21.3945 4.79297 21.0566 5.79102 20.8184 6.61523C20.6035 7.45117 20.4648 8.10547 20.4023 8.57812C20.3398 9.05078 20.3105 9.29297 20.3145 9.30469C20.3145 9.33984 20.3027 9.36719 20.2793 9.38672C20.2559 9.40625 20.2285 9.41602 20.1973 9.41602ZM21.9492 6.55078C21.9102 6.55078 21.875 6.54492 21.8438 6.5332C21.8125 6.52148 21.7793 6.49219 21.7441 6.44531C21.709 6.39453 21.6914 6.31641 21.6914 6.21094C21.707 5.96484 21.8125 5.68555 22.0078 5.37305C22.1992 5.05664 22.4277 4.84375 22.6934 4.73438C22.7832 4.69922 22.8867 4.69141 23.0039 4.71094C23.1211 4.72656 23.2422 4.80078 23.3672 4.93359C23.4453 4.83203 23.5078 4.74805 23.5547 4.68164C23.6016 4.61523 23.627 4.58203 23.6309 4.58203C23.6465 4.55469 23.668 4.53906 23.6953 4.53516C23.7266 4.52734 23.7559 4.53125 23.7832 4.54688C23.8105 4.5625 23.8281 4.58398 23.8359 4.61133C23.8438 4.63867 23.8418 4.66602 23.8301 4.69336C23.6543 5.11914 23.5605 5.43945 23.5488 5.6543C23.541 5.86914 23.5781 5.99805 23.6602 6.04102C23.7773 6.10742 23.9707 6.05859 24.2402 5.89453C24.5137 5.72656 24.8105 5.44922 25.1309 5.0625C25.1504 5.03516 25.1758 5.01953 25.207 5.01562C25.2383 5.01172 25.2676 5.02148 25.2949 5.04492C25.3184 5.06445 25.332 5.08984 25.3359 5.12109C25.3398 5.15234 25.332 5.18164 25.3125 5.20898C24.7227 5.91602 24.209 6.28125 23.7715 6.30469C23.6816 6.30469 23.6035 6.2832 23.5371 6.24023C23.4473 6.19727 23.3809 6.10352 23.3379 5.95898C23.2949 5.81445 23.3066 5.59766 23.373 5.30859C23.1777 5.55859 22.9707 5.79688 22.752 6.02344C22.3965 6.37891 22.1289 6.55469 21.9492 6.55078ZM21.9434 6.31641C21.9434 6.31641 21.9512 6.31641 21.9668 6.31641C21.9785 6.31641 22 6.31055 22.0312 6.29883C22.0625 6.2832 22.1035 6.25977 22.1543 6.22852C22.2012 6.19727 22.2598 6.15234 22.3301 6.09375C22.4004 6.03125 22.4844 5.95117 22.582 5.85352C22.8086 5.62305 23.0215 5.37891 23.2207 5.12109C23.2129 5.11328 23.2051 5.10547 23.1973 5.09766C23.084 4.96484 22.959 4.91211 22.8223 4.93945C22.6465 4.98633 22.4785 5.11719 22.3184 5.33203C22.1582 5.54297 22.041 5.76562 21.9668 6C21.9355 6.10938 21.9219 6.18945 21.9258 6.24023C21.9297 6.28711 21.9355 6.3125 21.9434 6.31641ZM24.7324 7.91602C24.7051 7.91602 24.6797 7.90625 24.6562 7.88672C24.6367 7.875 24.6152 7.85156 24.5918 7.81641C24.5684 7.77734 24.5508 7.71484 24.5391 7.62891C24.5234 7.53906 24.5234 7.41211 24.5391 7.24805C24.5547 7.08398 24.5938 6.86914 24.6562 6.60352C24.75 6.2168 24.8809 5.7832 25.0488 5.30273L25.1543 5.01562C25.2441 4.77734 25.3418 4.53516 25.4473 4.28906C25.7598 3.54297 26.0156 2.97656 26.2148 2.58984C26.418 2.20312 26.5781 1.93945 26.6953 1.79883C26.8125 1.6582 26.9062 1.58008 26.9766 1.56445C27.0352 1.54492 27.082 1.54297 27.1172 1.55859C27.1523 1.57422 27.1758 1.58984 27.1875 1.60547C27.2695 1.68359 27.25 1.87891 27.1289 2.19141C27.0391 2.42578 26.9043 2.7207 26.7246 3.07617C26.5488 3.4082 26.3203 3.77734 26.0391 4.18359C25.7578 4.58984 25.5332 4.9043 25.3652 5.12695C25.1504 5.69727 24.9902 6.20898 24.8848 6.66211C24.8535 6.79102 24.8301 6.90625 24.8145 7.00781C24.7949 7.10547 24.7812 7.19141 24.7734 7.26562C24.7656 7.33984 24.7617 7.4043 24.7617 7.45898C24.7617 7.50977 24.7637 7.55273 24.7676 7.58789C24.7715 7.61914 24.7773 7.64453 24.7852 7.66406C24.7891 7.67969 24.793 7.69141 24.7969 7.69922C24.8008 7.70312 24.8047 7.70508 24.8086 7.70508C24.832 7.72852 24.8457 7.75586 24.8496 7.78711C24.8496 7.81836 24.8398 7.84766 24.8203 7.875C24.793 7.90234 24.7637 7.91602 24.7324 7.91602ZM27 1.81641C26.9609 1.84375 26.9062 1.90625 26.8359 2.00391C26.7656 2.09766 26.6738 2.24414 26.5605 2.44336C26.334 2.85352 26.0566 3.44336 25.7285 4.21289C26.0527 3.75586 26.3164 3.3418 26.5195 2.9707C26.832 2.33008 26.9922 1.94531 27 1.81641ZM26.1914 6.48633C26.1211 6.48633 26.0605 6.46875 26.0098 6.43359C25.9473 6.37891 25.9121 6.3125 25.9043 6.23438C25.8926 6.15234 25.8945 6.07422 25.9102 6C25.9219 5.92188 25.9355 5.86133 25.9512 5.81836C26.0371 5.5293 26.2188 5.13672 26.4961 4.64062C26.5117 4.61328 26.5352 4.5957 26.5664 4.58789C26.5977 4.57617 26.627 4.57812 26.6543 4.59375C26.6816 4.61328 26.6992 4.63867 26.707 4.66992C26.7188 4.69727 26.7168 4.72656 26.7012 4.75781C26.627 4.88672 26.5605 5.00781 26.502 5.12109C26.4473 5.23047 26.3984 5.33008 26.3555 5.41992C26.3164 5.50977 26.2832 5.58984 26.2559 5.66016C26.2285 5.73047 26.207 5.79492 26.1914 5.85352C26.1719 5.9082 26.1582 5.95703 26.1504 6C26.1387 6.03906 26.1328 6.07422 26.1328 6.10547C26.1289 6.13281 26.1289 6.15625 26.1328 6.17578C26.1328 6.19141 26.1348 6.20508 26.1387 6.2168C26.1426 6.22461 26.1465 6.23242 26.1504 6.24023C26.1504 6.24414 26.1504 6.24609 26.1504 6.24609C26.1504 6.24609 26.1543 6.24805 26.1621 6.25195C26.166 6.25195 26.1738 6.25195 26.1855 6.25195C26.1934 6.25195 26.207 6.25195 26.2266 6.25195C26.2461 6.24805 26.2695 6.24219 26.2969 6.23438C26.3242 6.22656 26.3555 6.21484 26.3906 6.19922C26.4297 6.17969 26.4727 6.15625 26.5195 6.12891C26.5703 6.10156 26.627 6.06641 26.6895 6.02344C27.0098 5.80469 27.373 5.49023 27.7793 5.08008C27.8027 5.05664 27.8301 5.04492 27.8613 5.04492C27.8926 5.04492 27.9219 5.05469 27.9492 5.07422C27.9727 5.10156 27.9844 5.13086 27.9844 5.16211C27.9844 5.19336 27.9727 5.2207 27.9492 5.24414C27.8125 5.38477 27.6367 5.55078 27.4219 5.74219C27.2109 5.93359 26.9941 6.10352 26.7715 6.25195C26.5488 6.40039 26.3555 6.47852 26.1914 6.48633ZM26.8594 4.24219C26.8398 4.24219 26.8223 4.23828 26.8066 4.23047C26.7754 4.21484 26.7539 4.19336 26.7422 4.16602C26.7344 4.13477 26.7383 4.10352 26.7539 4.07227L26.8359 3.91406C26.8516 3.88672 26.873 3.86914 26.9004 3.86133C26.9316 3.84961 26.9609 3.84961 26.9883 3.86133C27.0195 3.87695 27.0391 3.90039 27.0469 3.93164C27.0586 3.96289 27.0566 3.99219 27.041 4.01953L26.9648 4.17773C26.9375 4.2207 26.9023 4.24219 26.8594 4.24219ZM27.1699 7.02539C27.1543 7.02539 27.1387 7.02148 27.123 7.01367C27.0957 7.00195 27.0762 6.98242 27.0645 6.95508C27.0527 6.92773 27.0508 6.90039 27.0586 6.87305C27.0586 6.87305 27.0625 6.86328 27.0703 6.84375C27.0781 6.82422 27.0918 6.79102 27.1113 6.74414C27.1309 6.69336 27.1582 6.62305 27.1934 6.5332C27.2285 6.44336 27.2754 6.33008 27.334 6.19336C27.3926 6.05273 27.4648 5.88281 27.5508 5.68359C27.6758 5.38672 27.8789 4.92383 28.1602 4.29492L28.2129 4.18359C28.3691 3.83984 28.5332 3.48828 28.7051 3.12891C28.8496 2.82422 28.9766 2.56445 29.0859 2.34961C29.1953 2.13477 29.2891 1.95898 29.3672 1.82227C29.4453 1.68555 29.5098 1.57812 29.5605 1.5C29.6113 1.41797 29.6543 1.35938 29.6895 1.32422C29.7246 1.28906 29.752 1.26562 29.7715 1.25391C29.791 1.24219 29.8086 1.23633 29.8242 1.23633C29.9219 1.2168 29.9961 1.24219 30.0469 1.3125C30.1211 1.44531 30.1016 1.64844 29.9883 1.92188C29.8789 2.19531 29.7598 2.44141 29.6309 2.66016C29.4395 2.98438 29.2148 3.30859 28.957 3.63281C28.7031 3.95703 28.5215 4.18359 28.4121 4.3125C28.2051 4.77344 28.0332 5.1582 27.8965 5.4668C28.0176 5.28711 28.1328 5.13086 28.2422 4.99805C28.6289 4.55273 28.9434 4.36914 29.1855 4.44727C29.2051 4.45508 29.2246 4.4707 29.2441 4.49414C29.2676 4.51367 29.2871 4.54297 29.3027 4.58203C29.3184 4.62109 29.3203 4.67383 29.3086 4.74023C29.2695 4.92773 29.1641 5.10742 28.9922 5.2793C28.8242 5.45117 28.6445 5.56445 28.4531 5.61914C28.3398 5.64648 28.248 5.66406 28.1777 5.67188C28.3652 5.95312 28.5586 6.10547 28.7578 6.12891C28.9609 6.14453 29.1738 6.0625 29.3965 5.88281C29.6191 5.70312 29.8496 5.48633 30.0879 5.23242C30.0879 5.23242 30.0898 5.23047 30.0938 5.22656C30.1367 5.17969 30.1816 5.13281 30.2285 5.08594C30.2559 5.0625 30.2852 5.05078 30.3164 5.05078C30.3477 5.05078 30.375 5.0625 30.3984 5.08594C30.4219 5.10938 30.4336 5.13672 30.4336 5.16797C30.4336 5.19922 30.4219 5.22656 30.3984 5.25C30.3516 5.29688 30.3047 5.3457 30.2578 5.39648C30.0156 5.6543 29.7754 5.87891 29.5371 6.07031C29.3027 6.25781 29.0645 6.35742 28.8223 6.36914C28.791 6.36914 28.7598 6.36719 28.7285 6.36328C28.4551 6.32812 28.2031 6.13477 27.9727 5.7832C27.8516 5.97461 27.7383 6.16016 27.6328 6.33984C27.5273 6.51562 27.4434 6.66211 27.3809 6.7793C27.3145 6.89648 27.2793 6.95898 27.2754 6.9668C27.248 7.00586 27.2129 7.02539 27.1699 7.02539ZM29.0684 4.6582C29.0254 4.6582 28.9453 4.69531 28.8281 4.76953C28.7148 4.83984 28.5801 4.9668 28.4238 5.15039C28.3535 5.23242 28.2812 5.32422 28.207 5.42578C28.2617 5.41797 28.3262 5.40625 28.4004 5.39062C28.5449 5.35156 28.6855 5.26172 28.8223 5.12109C28.959 4.98047 29.0449 4.83984 29.0801 4.69922C29.0801 4.67969 29.0801 4.66602 29.0801 4.6582C29.0762 4.6582 29.0723 4.6582 29.0684 4.6582ZM29.8594 1.48242C29.8359 1.50586 29.7891 1.57227 29.7188 1.68164C29.6484 1.79102 29.5449 1.97461 29.4082 2.23242C29.2754 2.48633 29.0996 2.84375 28.8809 3.30469C28.8613 3.34766 28.8398 3.39062 28.8164 3.43359C29.0547 3.12891 29.2578 2.83203 29.4258 2.54297C29.5938 2.24609 29.709 2.00977 29.7715 1.83398C29.834 1.6582 29.8633 1.54102 29.8594 1.48242Z" fill="white"/>
</svg>
