<svg width="49" height="14" viewBox="0 0 49 14" fill="none" xmlns="http://www.w3.org/2000/svg">
<path d="M5.88477 0.160156H5.94922C6.41406 0.160156 6.875 0.488281 7.33203 1.14453C7.51953 1.46094 7.66797 1.8125 7.77734 2.19922C7.86719 2.47656 7.9668 2.94531 8.07617 3.60547C8.15039 4.13672 8.22461 4.74805 8.29883 5.43945C8.30664 5.45508 8.31055 5.46289 8.31055 5.46289C8.45898 5.38086 8.73828 5.20703 9.14844 4.94141H9.16016L9.16602 4.95312C9.03711 5.05469 8.77344 5.24609 8.375 5.52734V5.53906C8.48828 5.47656 9.01953 5.13281 9.96875 4.50781C10.043 4.46094 10.1016 4.41797 10.1445 4.37891H10.1328C10.1211 4.37891 10.0469 4.41406 9.91016 4.48438H9.89844C9.89062 4.48438 9.88672 4.48047 9.88672 4.47266C10 4.37109 10.2246 4.2168 10.5605 4.00977C11.2559 3.58008 11.9883 3.1543 12.7578 2.73242C12.9531 2.63086 13.0703 2.58008 13.1094 2.58008V2.58594C13 2.66406 12.7773 2.79102 12.4414 2.9668C12.2305 3.08789 12.0918 3.17773 12.0254 3.23633V3.24219H12.0312C13.1406 2.64062 13.8379 2.25586 14.123 2.08789V2.08203H14.1172C14.0586 2.09766 13.9473 2.14453 13.7832 2.22266H13.7773V2.2168C13.8633 2.14258 14.0293 2.03906 14.2754 1.90625C14.6973 1.68359 15.1484 1.48438 15.6289 1.30859C15.707 1.28516 15.7539 1.27344 15.7695 1.27344C15.8047 1.30078 15.8672 1.38672 15.957 1.53125C15.9766 1.58594 15.9863 1.62695 15.9863 1.6543V1.67188C15.9863 1.71094 15.9609 1.75586 15.9102 1.80664V1.8125H15.9453L15.9805 1.80664C16.0234 1.81445 16.0449 1.83203 16.0449 1.85938C16.0059 1.91797 15.875 2.00781 15.6523 2.12891C15.3398 2.29297 14.6211 2.66602 13.4961 3.24805C12.4414 3.82227 11.3223 4.48242 10.1387 5.22852C9.4043 5.69336 8.8418 6.06445 8.45117 6.3418C8.39258 6.39258 8.36328 6.41992 8.36328 6.42383C8.49609 8.97852 8.59375 10.4473 8.65625 10.8301C8.75 11.4629 8.83594 11.8516 8.91406 11.9961H8.9375C9.05859 11.9766 9.30664 11.7207 9.68164 11.2285C9.92773 10.9238 10.2383 10.5215 10.6133 10.0215C11.1289 9.18555 11.4414 8.70508 11.5508 8.58008L11.5742 8.55664H11.5801V8.5625C11.5645 8.59375 11.5547 8.61719 11.5508 8.63281H11.5566C11.5918 8.61328 11.625 8.57617 11.6562 8.52148H11.6504C11.623 8.53711 11.6035 8.54492 11.5918 8.54492C11.584 8.54492 11.5801 8.54102 11.5801 8.5332C11.5879 8.48242 11.6387 8.42578 11.7324 8.36328H11.7383V8.375C11.7031 8.41406 11.6855 8.43945 11.6855 8.45117H11.6914C11.7188 8.44727 11.7422 8.44531 11.7617 8.44531C11.8281 8.44922 11.9277 8.51953 12.0605 8.65625C12.0996 8.70312 12.1191 8.74219 12.1191 8.77344C12.1191 8.875 11.5586 9.79492 10.4375 11.5332C10.25 11.8105 10.0078 12.1074 9.71094 12.4238C9.50391 12.6465 9.3125 12.7578 9.13672 12.7578C8.89062 12.7578 8.64648 12.4551 8.4043 11.8496C8.32617 11.627 8.25391 11.3379 8.1875 10.9824C8.11719 10.6191 8.04492 9.9707 7.9707 9.03711C7.90039 7.91992 7.86523 7.21875 7.86523 6.93359C7.85352 6.875 7.83008 6.8457 7.79492 6.8457C7.7207 6.84961 7.48828 7.00195 7.09766 7.30273C5.92969 8.13867 4.61719 9.16211 3.16016 10.373L1.58398 11.6914C1.06836 12.1055 0.769531 12.3125 0.6875 12.3125C0.648438 12.3164 0.619141 12.3184 0.599609 12.3184C0.474609 12.3066 0.412109 12.2617 0.412109 12.1836C0.412109 12.1445 0.447266 12.084 0.517578 12.002C0.525391 11.9785 0.529297 11.9609 0.529297 11.9492L0.511719 11.9258C0.515625 11.9258 0.517578 11.9238 0.517578 11.9199L0.552734 11.9258C0.599609 11.9258 0.734375 11.8027 0.957031 11.5566V11.5508C0.867188 11.6367 0.796875 11.6992 0.746094 11.7383V11.7324C0.78125 11.6777 0.980469 11.4766 1.34375 11.1289L1.34961 11.1406C1.3418 11.1758 1.33789 11.1953 1.33789 11.1992C1.3418 11.1992 1.34375 11.2012 1.34375 11.2051C1.49219 11.0996 1.63867 10.9512 1.7832 10.7598C1.79492 10.6934 2.11523 10.377 2.74414 9.81055C3.7832 8.91211 4.61328 8.23047 5.23438 7.76562C5.31641 7.70312 5.37695 7.66211 5.41602 7.64258L5.42188 7.6543C5.28906 7.77539 5.03906 7.98438 4.67188 8.28125V8.29297C5.01953 8.04297 5.4082 7.73828 5.83789 7.37891C5.86523 7.35547 5.90234 7.31055 5.94922 7.24414C6.20703 7.01367 6.59375 6.70508 7.10938 6.31836C7.37109 6.12695 7.59961 5.96875 7.79492 5.84375C7.70117 4.63281 7.5918 3.66406 7.4668 2.9375C7.33008 2.19531 7.19141 1.67383 7.05078 1.37305C6.96484 1.16602 6.79883 1.00977 6.55273 0.904297C6.39258 0.833984 6.24023 0.798828 6.0957 0.798828C5.59961 0.798828 4.97852 1.07813 4.23242 1.63672C3.72852 2.03516 3.3418 2.42969 3.07227 2.82031C2.97461 2.97266 2.91602 3.05469 2.89648 3.06641H2.88477C2.82617 3.03516 2.76758 2.97852 2.70898 2.89648C2.68945 2.85742 2.67773 2.82227 2.67383 2.79102C2.71289 2.66992 2.81836 2.48242 2.99023 2.22852C3.00195 2.20117 3.00781 2.18359 3.00781 2.17578L2.99609 2.18164L2.99023 2.16992C3.0293 2.08789 3.08789 2.01953 3.16602 1.96484L3.20703 1.9707V1.95312C3.20703 1.92188 3.28125 1.83789 3.42969 1.70117C3.44141 1.68945 3.45117 1.66602 3.45898 1.63086C3.51758 1.63086 3.62891 1.52734 3.79297 1.32031C3.80469 1.30859 3.81445 1.28125 3.82227 1.23828C3.82227 1.21875 3.87891 1.18945 3.99219 1.15039C4.30859 0.923828 4.57617 0.734375 4.79492 0.582031C4.79492 0.578125 4.80859 0.566406 4.83594 0.546875H4.83008L4.76562 0.564453C4.75781 0.564453 4.75391 0.560547 4.75391 0.552734C4.82812 0.478516 5.04883 0.373047 5.41602 0.236328C5.58398 0.185547 5.74023 0.160156 5.88477 0.160156ZM12.9922 5.04688C13.1445 5.04688 13.291 5.11914 13.4316 5.26367C13.6035 5.42773 13.6895 5.57031 13.6895 5.69141V5.70898C13.6895 5.93945 13.5566 6.16016 13.291 6.37109C13.123 6.49219 12.9629 6.55273 12.8105 6.55273H12.7695C12.5586 6.55273 12.3594 6.41016 12.1719 6.125C12.1094 6.02734 12.0781 5.89258 12.0781 5.7207V5.70898C12.0781 5.56055 12.1094 5.4668 12.1719 5.42773C12.1719 5.43164 12.1719 5.43359 12.1719 5.43359V5.43945C12.1719 5.44727 12.1738 5.45117 12.1777 5.45117C12.2871 5.3457 12.3418 5.27734 12.3418 5.24609L12.5762 5.19336L12.8164 5.07617C12.8867 5.05664 12.9453 5.04688 12.9922 5.04688ZM12.8691 5.84375C12.8848 5.90625 12.9004 5.9375 12.916 5.9375H12.9277C13.002 5.91016 13.1035 5.80273 13.2324 5.61523C13.2637 5.55664 13.2793 5.50977 13.2793 5.47461C13.2793 5.46289 13.2695 5.45312 13.25 5.44531C13.2109 5.44531 13.1426 5.50391 13.0449 5.62109C13.0137 5.66016 12.9766 5.67969 12.9336 5.67969C12.8906 5.73438 12.8691 5.78906 12.8691 5.84375ZM13.0156 5.98438H13.0273C13.0703 5.95312 13.1348 5.88672 13.2207 5.78516V5.7793C13.084 5.90039 13.0156 5.96875 13.0156 5.98438ZM12.4766 5.97266V6.01953C12.4766 6.06641 12.5078 6.0957 12.5703 6.10742C12.6133 6.10742 12.6523 6.08984 12.6875 6.05469V6.04883C12.6875 6.00977 12.6328 5.95312 12.5234 5.87891H12.5117C12.5 5.87891 12.4883 5.91016 12.4766 5.97266ZM12.1895 6.72852H12.1953C12.2578 6.73242 12.3574 6.79492 12.4941 6.91602C12.584 7.0332 12.6289 7.16797 12.6289 7.32031C12.5117 7.52734 12.334 8.00195 12.0957 8.74414C11.8535 9.54883 11.7324 10.082 11.7324 10.3438V10.3496C11.7324 10.4121 11.7422 10.4434 11.7617 10.4434H11.7793C11.9551 10.3105 12.1094 10.1484 12.2422 9.95703C12.5195 9.57422 12.8105 9.09961 13.1152 8.5332C13.2285 8.30664 13.3223 8.19336 13.3965 8.19336C13.5996 8.24805 13.7246 8.35352 13.7715 8.50977C13.7168 8.69336 13.6641 8.82422 13.6133 8.90234C13.5234 9.10547 13.4473 9.20703 13.3848 9.20703H13.3789L13.3672 9.20117C13.2266 9.43555 13.1562 9.56055 13.1562 9.57617L13.1797 9.56445C13.1836 9.57227 13.1855 9.57812 13.1855 9.58203C13.0645 9.81641 12.8281 10.1348 12.4766 10.5371C12.1797 10.8535 11.9629 11.0117 11.8262 11.0117H11.8203C11.707 11.0117 11.5312 10.9082 11.293 10.7012C11.1914 10.5879 11.1387 10.4961 11.1348 10.4258C11.1191 10.3047 11.1113 10.1973 11.1113 10.1035C11.1113 9.7793 11.2324 9.23438 11.4746 8.46875C11.7051 7.72656 11.9102 7.16016 12.0898 6.76953C12.1289 6.74219 12.1621 6.72852 12.1895 6.72852ZM12.8574 9.99805C12.916 9.96289 12.9453 9.92383 12.9453 9.88086V9.86914C12.9102 9.86914 12.8809 9.91211 12.8574 9.99805ZM12.5762 10.3262H12.582C12.6523 10.2754 12.6875 10.2383 12.6875 10.2148H12.6816C12.6426 10.2422 12.6074 10.2793 12.5762 10.3262ZM15.0312 6.82227C15.3945 6.82227 15.7188 7.02344 16.0039 7.42578C16.0664 7.51953 16.0996 7.60938 16.1035 7.69531C16.1035 7.78516 16.0703 7.8457 16.0039 7.87695H15.9922C15.9219 7.87695 15.8359 7.77148 15.7344 7.56055C15.6719 7.45898 15.5723 7.4082 15.4355 7.4082H15.4062C15.0117 7.4082 14.5781 7.73047 14.1055 8.375C13.9414 8.60547 13.8125 8.83984 13.7188 9.07812C13.5742 9.46094 13.502 9.81836 13.502 10.1504V10.209C13.502 10.2949 13.5273 10.3379 13.5781 10.3379C13.6797 10.3379 13.8867 10.1641 14.1992 9.81641C14.3555 9.62109 14.5156 9.39648 14.6797 9.14258C14.7148 9.0957 14.7344 9.07227 14.7383 9.07227H14.7441V9.07812C14.6699 9.27734 14.4707 9.58008 14.1465 9.98633H14.1523C14.2656 9.87305 14.3887 9.71875 14.5215 9.52344C14.8027 9.10547 14.9707 8.81836 15.0254 8.66211C15.0215 8.66211 15.0195 8.66016 15.0195 8.65625L15.0078 8.66211C15 8.66211 14.9961 8.6582 14.9961 8.65039C14.9961 8.58398 15.0879 8.35547 15.2715 7.96484C15.3105 7.91016 15.3398 7.88281 15.3594 7.88281C15.3711 7.91797 15.3848 7.93555 15.4004 7.93555C15.4355 7.93164 15.4629 7.92969 15.4824 7.92969C15.5645 7.94141 15.6816 8.00977 15.834 8.13477C15.8809 8.18945 15.9082 8.23242 15.916 8.26367C15.7598 8.78711 15.6602 9.14062 15.6172 9.32422C15.5508 9.58203 15.5176 9.78906 15.5176 9.94531C15.5254 9.97656 15.5352 9.99219 15.5469 9.99219C15.6094 9.95312 15.6465 9.93359 15.6582 9.93359C15.6621 9.94141 15.6641 9.94922 15.6641 9.95703C15.7461 9.92188 15.7871 9.88086 15.7871 9.83398V9.82227C15.7754 9.82227 15.7539 9.82812 15.7227 9.83984V9.82227C15.7344 9.80273 15.75 9.78711 15.7695 9.77539H15.7754C15.7871 9.77539 15.8008 9.7793 15.8164 9.78711C15.9062 9.74023 15.9766 9.66016 16.0273 9.54688V9.54102H16.0215C16.0137 9.54102 15.9434 9.60742 15.8105 9.74023V9.73438C15.9199 9.57812 16 9.5 16.0508 9.5C16.0977 9.5 16.1875 9.41016 16.3203 9.23047V9.21289C16.3125 9.21289 16.2871 9.2207 16.2441 9.23633L16.2383 9.22461C16.2969 9.1582 16.3418 9.12305 16.373 9.11914V9.125C16.3496 9.17188 16.3379 9.19727 16.3379 9.20117C16.4043 9.14648 16.4844 9.06445 16.5781 8.95508V8.94336C16.5 9.00195 16.4453 9.03906 16.4141 9.05469L16.4082 9.04297C16.5449 8.875 16.7891 8.62109 17.1406 8.28125C17.2227 8.22266 17.2832 8.19336 17.3223 8.19336H17.3457C17.4121 8.19336 17.4922 8.27148 17.5859 8.42773C17.5977 8.42773 17.6074 8.43555 17.6152 8.45117C17.6152 8.50586 17.5156 8.63672 17.3164 8.84375C17.1367 9.07031 16.8535 9.40234 16.4668 9.83984C16.1426 10.2305 15.8945 10.5117 15.7227 10.6836C15.6523 10.7344 15.5879 10.7598 15.5293 10.7598C15.4473 10.7598 15.3125 10.6582 15.125 10.4551C15.0078 10.3105 14.9414 10.1777 14.9258 10.0566L14.9082 9.94531C14.7012 10.207 14.5352 10.4082 14.4102 10.5488C14.1328 10.8223 13.9082 10.959 13.7363 10.959C13.5449 10.959 13.3203 10.8164 13.0625 10.5312C12.8906 10.3438 12.8047 10.0938 12.8047 9.78125C12.8047 9.31641 12.9727 8.78516 13.3086 8.1875C13.4219 7.98047 13.6191 7.71875 13.9004 7.40234C14.1621 7.15234 14.3438 7.00977 14.4453 6.97461C14.625 6.87305 14.8203 6.82227 15.0312 6.82227ZM13.5195 7.96484H13.5312C13.5312 7.92188 13.7578 7.68164 14.2109 7.24414C14.2852 7.17773 14.3418 7.13086 14.3809 7.10352V7.0918C14.3184 7.11133 14.1621 7.23828 13.9121 7.47266C13.6621 7.73828 13.5312 7.90234 13.5195 7.96484ZM17.4805 6.64062C17.5508 6.64062 17.6465 6.71289 17.7676 6.85742C17.791 6.89258 17.8027 6.93359 17.8027 6.98047C17.8027 7.15625 17.7148 7.69336 17.5391 8.5918C17.5312 8.63477 17.5254 8.67578 17.5215 8.71484H17.5391C17.7148 8.43359 17.8027 8.26953 17.8027 8.22266H17.7969L17.7793 8.23438C17.7715 8.23438 17.7676 8.22852 17.7676 8.2168C17.9004 7.96289 18.123 7.66992 18.4355 7.33789C18.7363 7.01758 18.9766 6.85742 19.1562 6.85742H19.1914C19.3477 6.85742 19.5332 6.98438 19.748 7.23828C19.8223 7.32812 19.8594 7.47656 19.8594 7.68359V7.77734C19.8594 7.96875 19.8066 8.33008 19.7012 8.86133C19.6621 9.07617 19.6367 9.25391 19.625 9.39453C19.6445 9.39453 19.7656 9.27344 19.9883 9.03125C20.3984 8.65234 20.6855 8.43555 20.8496 8.38086C20.9316 8.38086 21.043 8.34766 21.1836 8.28125C21.2188 8.26953 21.2422 8.26367 21.2539 8.26367C21.3203 8.26367 21.4102 8.32422 21.5234 8.44531C21.5312 8.45703 21.5352 8.46875 21.5352 8.48047C21.5352 8.51562 21.4355 8.61328 21.2363 8.77344C21.1504 8.82031 20.8633 9.08398 20.375 9.56445C19.8828 10.0957 19.5938 10.3613 19.5078 10.3613H19.4844C19.3047 10.2988 19.1621 10.1758 19.0566 9.99219C19.0059 9.89062 18.9805 9.79688 18.9805 9.71094C18.9805 9.53516 19.0938 8.90039 19.3203 7.80664C19.3359 7.73633 19.3496 7.62891 19.3613 7.48438C19.3574 7.42188 19.3477 7.39062 19.332 7.39062H19.3262C19.127 7.42969 18.8027 7.78125 18.3535 8.44531C18.0996 8.83203 17.9062 9.17188 17.7734 9.46484C17.543 9.95703 17.3145 10.5273 17.0879 11.1758C17.0293 11.3398 16.9609 11.4219 16.8828 11.4219C16.875 11.4219 16.8516 11.3926 16.8125 11.334C16.793 11.3184 16.7266 11.2793 16.6133 11.2168C16.4805 11.1074 16.4141 11.0039 16.4141 10.9062V10.8594C16.4141 10.6406 16.459 10.3555 16.5488 10.0039C16.5645 9.98047 16.5742 9.96875 16.5781 9.96875H16.584L16.6016 9.98047H16.6074V9.97461C16.5996 9.9043 16.5957 9.85938 16.5957 9.83984V9.83398C16.5957 9.6543 16.6426 9.44922 16.7363 9.21875C16.7754 9.21875 16.8066 9.07617 16.8301 8.79102C16.8848 8.50977 16.9512 8.26953 17.0293 8.07031L17.041 8.06445H17.0469L17.0059 8.31641V8.32227H17.0117C17.1172 8.00977 17.1992 7.72461 17.2578 7.4668C17.2969 7.26758 17.3301 7.02344 17.3574 6.73438C17.3574 6.6875 17.3926 6.65625 17.4629 6.64062H17.4805ZM18.2656 7.60156H18.2715C18.291 7.60156 18.3262 7.56641 18.377 7.49609V7.49023C18.3027 7.54492 18.2656 7.58203 18.2656 7.60156ZM16.9707 8.39258V8.46875C16.9707 8.47656 16.9746 8.48047 16.9824 8.48047L16.9941 8.46289V8.43359C16.9941 8.42578 16.9902 8.4082 16.9824 8.38086C16.9746 8.38477 16.9707 8.38867 16.9707 8.39258ZM16.877 8.72656C16.8809 8.75781 16.8867 8.77344 16.8945 8.77344L16.9062 8.75586V8.73242C16.9062 8.7207 16.9023 8.70117 16.8945 8.67383C16.8867 8.67383 16.8809 8.69141 16.877 8.72656ZM19.6602 9.48242V9.5H19.666C19.6973 9.48047 19.7305 9.44336 19.7656 9.38867H19.7598C19.7363 9.40039 19.7031 9.43164 19.6602 9.48242ZM16.6309 9.73438V9.76367C16.6309 9.76758 16.6289 9.76953 16.625 9.76953L16.6309 9.78125V9.82227H16.6484L16.6543 9.79297V9.78711C16.6543 9.77539 16.6504 9.75781 16.6426 9.73438H16.6309ZM16.5488 10.1504V10.1562C16.5488 10.168 16.5469 10.1855 16.543 10.209C16.5469 10.2363 16.5527 10.25 16.5605 10.25C16.5684 10.2344 16.5723 10.2227 16.5723 10.2148V10.209C16.5723 10.1973 16.5684 10.1777 16.5605 10.1504H16.5488ZM36.1367 1.02148C36.2422 1.02148 36.4004 1.18945 36.6113 1.52539L36.6348 1.64258C36.6348 1.80664 36.4355 2.48633 36.0371 3.68164C35.6465 4.86523 35.3145 5.96094 35.041 6.96875C34.6582 8.39062 34.3066 10.0996 33.9863 12.0957C33.9238 12.5527 33.8926 12.8457 33.8926 12.9746V13.0039C33.8926 13.0195 33.8906 13.0371 33.8867 13.0566C33.8867 13.1816 33.9648 13.2852 34.1211 13.3672L34.127 13.4023C34.127 13.5039 34.0586 13.6328 33.9219 13.7891C33.8555 13.8555 33.8008 13.8887 33.7578 13.8887H33.752C33.6309 13.8418 33.4883 13.707 33.3242 13.4844C33.2578 13.3633 33.2246 13.2012 33.2246 12.998V12.9336C33.2246 12.7812 33.2539 12.4277 33.3125 11.873C33.3125 11.4707 33.5371 10.2578 33.9863 8.23438C34.4199 6.42188 34.8984 4.78906 35.4219 3.33594C35.5273 3.03125 35.5957 2.81445 35.627 2.68555H35.6211C35.5195 2.79492 35.2715 3.10547 34.877 3.61719C33.7168 5.11328 32.6152 6.64258 31.5723 8.20508C31.1621 8.82227 30.8047 9.33594 30.5 9.74609C30.3594 9.92969 30.1875 10.123 29.9844 10.3262C29.8555 10.4395 29.7363 10.4961 29.627 10.4961C29.4746 10.4961 29.293 10.3652 29.082 10.1035C28.918 9.9043 28.8359 9.58008 28.8359 9.13086C28.8359 8.5332 28.9492 7.5332 29.1758 6.13086C29.2539 5.81836 29.293 5.54883 29.293 5.32227C29.293 5.27539 29.3516 4.79688 29.4688 3.88672C29.5508 3.12109 29.5918 2.58203 29.5918 2.26953V2.18164L29.5859 2.15234H29.5801C29.416 2.51953 28.9395 3.66797 28.1504 5.59766C27.1504 8.06641 26.1914 10.1426 25.2734 11.8262C25 12.3066 24.6855 12.8496 24.3301 13.4551C24.2832 13.5801 24.2305 13.6426 24.1719 13.6426C24.1562 13.6426 24.1191 13.6133 24.0605 13.5547C24.0449 13.5469 24.0312 13.543 24.0195 13.543H24.0137C24.0137 13.543 23.998 13.5469 23.9668 13.5547H23.9551C23.9434 13.5547 23.9375 13.5391 23.9375 13.5078C23.9375 13.4102 24.0215 13.2598 24.1895 13.0566H24.1953L24.1777 13.1152C24.2793 13.0098 24.3301 12.9355 24.3301 12.8926H24.3242C24.293 12.9043 24.2734 12.9102 24.2656 12.9102H24.2598C24.2559 12.9102 24.25 12.9043 24.2422 12.8926C24.2773 12.7988 24.3926 12.625 24.5879 12.3711C24.7676 11.9961 24.998 11.5254 25.2793 10.959C25.6113 10.3027 25.7773 9.93359 25.7773 9.85156C25.8047 9.84766 25.8184 9.83789 25.8184 9.82227C25.8145 9.76758 25.8125 9.73438 25.8125 9.72266L25.8242 9.7168C25.8359 9.72461 25.8457 9.72852 25.8535 9.72852C25.8652 9.70898 25.8867 9.64648 25.918 9.54102C26.3398 8.61523 26.6875 7.83008 26.9609 7.18555C27.168 6.70117 27.498 5.9043 27.9512 4.79492C28.1309 4.42773 28.248 4.16211 28.3027 3.99805C28.3027 3.94727 28.3496 3.83203 28.4434 3.65234C28.5684 3.35547 28.6309 3.19141 28.6309 3.16016C28.627 3.16016 28.6055 3.18359 28.5664 3.23047H28.5547C28.5547 3.18359 28.6445 2.98438 28.8242 2.63281C29.0117 2.16406 29.1387 1.85156 29.2051 1.69531C29.3379 1.39062 29.457 1.23828 29.5625 1.23828C29.6797 1.23828 29.8281 1.39844 30.0078 1.71875C30.082 1.89844 30.1191 2.19727 30.1191 2.61523C30.1191 3.29102 29.9902 4.61328 29.7324 6.58203C29.5723 8.10938 29.4922 9.0957 29.4922 9.54102C29.4922 9.56055 29.4961 9.60352 29.5039 9.66992H29.5332C29.6074 9.61523 29.7051 9.50977 29.8262 9.35352C30.1816 8.86914 30.873 7.88086 31.9004 6.38867C32.1895 5.99023 32.3828 5.73047 32.4805 5.60938H32.4863V5.62109C32.4082 5.75 32.125 6.16797 31.6367 6.875L31.5781 6.98047H31.584C31.6621 6.88281 31.8828 6.57617 32.2461 6.06055C32.957 5.0957 33.4297 4.44922 33.6641 4.12109C33.7188 4.03906 33.75 3.98438 33.7578 3.95703L33.752 3.92188C33.752 3.86328 33.7969 3.79492 33.8867 3.7168L33.9219 3.72266C33.9531 3.72266 33.998 3.68164 34.0566 3.59961V3.59375C33.9863 3.65625 33.9414 3.6875 33.9219 3.6875L33.916 3.67578C34.0684 3.4375 34.4121 2.99414 34.9473 2.3457C35.3262 1.86914 35.666 1.46484 35.9668 1.13281C36.0488 1.05859 36.1055 1.02148 36.1367 1.02148ZM36.0371 1.15625L35.9434 1.25V1.26758H35.9492C35.9609 1.26758 35.9941 1.23242 36.0488 1.16211L36.0371 1.15625ZM33.875 3.81641C33.8086 3.875 33.7754 3.91211 33.7754 3.92773H33.7812C33.8008 3.92773 33.8359 3.89258 33.8867 3.82227L33.875 3.81641ZM31.1562 7.5957C31.2578 7.48633 31.3203 7.39844 31.3438 7.33203C31.2266 7.46094 31.1641 7.54883 31.1562 7.5957ZM29.8203 9.4707V9.48242H29.8262C29.8613 9.45898 29.8965 9.41992 29.9316 9.36523H29.9258C29.8789 9.39648 29.8438 9.43164 29.8203 9.4707ZM29.6035 9.74609V9.75195H29.6094C29.7109 9.66211 29.7617 9.60352 29.7617 9.57617C29.7031 9.61523 29.6504 9.67188 29.6035 9.74609ZM36.2832 7.96484H36.2949C36.2949 7.92578 36.498 7.70508 36.9043 7.30273C37.0059 7.20898 37.084 7.14258 37.1387 7.10352V7.0918C37.0645 7.11133 36.8711 7.27734 36.5586 7.58984C36.4023 7.76562 36.3105 7.89062 36.2832 7.96484ZM36.8984 9.99219V10.0039C36.9062 10.0039 36.9102 10 36.9102 9.99219H36.8984ZM42.0781 2.76758C42.3594 1.9668 42.5449 1.46875 42.6348 1.27344C42.6465 1.25391 42.6543 1.24414 42.6582 1.24414H42.6699L42.6816 1.25C42.6816 1.24609 42.6777 1.23047 42.6699 1.20312C42.7285 0.890625 42.7988 0.734375 42.8809 0.734375H42.8926C42.9512 0.734375 43.041 0.810547 43.1621 0.962891C43.1699 0.994141 43.1738 1.01758 43.1738 1.0332C43.1738 1.18555 42.8965 2.13281 42.3418 3.875C41.9082 5.24219 41.5254 6.63477 41.1934 8.05273C40.7363 10.1777 40.5078 11.6484 40.5078 12.4648V12.5586C40.5078 12.6641 40.5215 12.8301 40.5488 13.0566V13.1035C40.5488 13.1465 40.5098 13.1816 40.4316 13.209C40.2598 13.1113 40.1348 12.9551 40.0566 12.7402C40.002 12.5566 39.9746 12.2676 39.9746 11.873C39.9746 11.0527 40.0918 10.1582 40.3262 9.18945C40.4551 8.46289 40.5898 7.89258 40.7305 7.47852C40.7852 7.37695 40.8438 7.19531 40.9062 6.93359V6.91016H40.9004C40.8965 6.95312 40.8906 6.97461 40.8828 6.97461C40.875 6.97461 40.8711 6.9707 40.8711 6.96289V6.93359C40.8711 6.87891 40.8887 6.7793 40.9238 6.63477C40.7285 7.08008 40.5879 7.39844 40.502 7.58984C40.1074 8.42188 39.7324 9.09961 39.377 9.62305C39.2676 9.80664 39.1191 10.0039 38.9316 10.2148C38.627 10.5781 38.4277 10.7598 38.334 10.7598H38.3105C38.209 10.7598 38.0684 10.6602 37.8887 10.4609C37.7441 10.2891 37.6719 10.1172 37.6719 9.94531H37.666C37.4512 10.2266 37.2656 10.4473 37.1094 10.6074C36.8594 10.8418 36.6523 10.959 36.4883 10.959C36.3086 10.959 36.0879 10.8164 35.8262 10.5312C35.6543 10.3359 35.5684 10.0879 35.5684 9.78711C35.5684 9.27148 35.7656 8.68945 36.1602 8.04102C36.2812 7.8418 36.4766 7.60156 36.7461 7.32031C37 7.08594 37.2109 6.94336 37.3789 6.89258C37.5117 6.8457 37.6504 6.82227 37.7949 6.82227C38.1426 6.82227 38.459 7.00977 38.7441 7.38477C38.8223 7.50195 38.8613 7.60547 38.8613 7.69531C38.8457 7.81641 38.8125 7.87695 38.7617 7.87695H38.75C38.6836 7.87695 38.5996 7.77148 38.498 7.56055C38.4355 7.45898 38.334 7.4082 38.1934 7.4082H38.1523C37.7578 7.4082 37.3086 7.75977 36.8047 8.46289C36.4453 9.02539 36.2656 9.59961 36.2656 10.1855V10.2031C36.2656 10.293 36.2891 10.3379 36.3359 10.3379H36.3418C36.4863 10.3145 36.7285 10.0977 37.0684 9.6875L37.4785 9.08398L37.502 9.07227H37.5137V9.07812C37.4512 9.24219 37.25 9.54297 36.9102 9.98047H36.916C37.0684 9.82422 37.1934 9.66602 37.291 9.50586C37.6191 9.02148 37.7832 8.73828 37.7832 8.65625C37.7676 8.65625 37.7598 8.65234 37.7598 8.64453C37.7676 8.5625 37.8555 8.34375 38.0234 7.98828C38.0625 7.91797 38.0957 7.88281 38.123 7.88281C38.1309 7.91406 38.1445 7.92969 38.1641 7.92969C38.1953 7.92578 38.2207 7.92383 38.2402 7.92383C38.3184 7.92773 38.4395 8.00195 38.6035 8.14648C38.6504 8.20117 38.6738 8.24023 38.6738 8.26367C38.6543 8.3457 38.5664 8.64844 38.4102 9.17188C38.3242 9.53125 38.2812 9.7832 38.2812 9.92773C38.2852 9.9707 38.2949 9.99219 38.3105 9.99219C38.373 9.95312 38.4082 9.93359 38.416 9.93359C38.4238 9.94922 38.4297 9.95703 38.4336 9.95703C38.5156 9.91406 38.5566 9.87109 38.5566 9.82812C38.5488 9.82422 38.543 9.82227 38.5391 9.82227C38.5117 9.83008 38.4941 9.83398 38.4863 9.83398V9.82227C38.5098 9.79102 38.5293 9.77539 38.5449 9.77539L38.5801 9.78125C38.6738 9.67969 38.8281 9.47656 39.043 9.17188C39.4844 8.48047 39.8926 7.72656 40.2676 6.91016C40.4629 6.50781 41.0664 5.12695 42.0781 2.76758ZM45.9277 6.95703C45.9316 6.96094 45.9336 6.9668 45.9336 6.97461H45.9453C45.9922 6.9668 46.0156 6.94531 46.0156 6.91016V6.9043C46.0117 6.9043 46.0059 6.90234 45.998 6.89844C45.9707 6.89844 45.9473 6.91797 45.9277 6.95703ZM44.9023 6.91016V6.95703H44.9082V6.91016H44.9023ZM45.0195 8.89648C45.0664 8.9043 45.1035 8.9082 45.1309 8.9082H45.2012C45.3145 8.9082 45.4277 8.85547 45.541 8.75C45.5645 8.73828 45.5801 8.73242 45.5879 8.73242H45.5996C45.5996 8.75195 45.584 8.7793 45.5527 8.81445H45.5586C45.9102 8.4707 46.127 8.23242 46.209 8.09961C46.4863 7.7207 46.6348 7.43164 46.6543 7.23242C46.6543 7.20898 46.6445 7.19141 46.625 7.17969H46.584C46.4355 7.19141 46.1406 7.4043 45.6992 7.81836C45.4688 8.07227 45.3008 8.30664 45.1953 8.52148C45.0781 8.70898 45.0195 8.83398 45.0195 8.89648ZM45.7051 7.63672V7.64258C45.7832 7.58398 45.8594 7.50781 45.9336 7.41406H45.9277C45.873 7.44922 45.7988 7.52344 45.7051 7.63672ZM46.9883 9.83398V9.83984C47.082 9.76562 47.1289 9.71289 47.1289 9.68164V9.67578C47.1211 9.67578 47.0742 9.72852 46.9883 9.83398ZM46.2031 10.5781C46.2031 10.5859 46.209 10.5898 46.2207 10.5898C46.2715 10.5664 46.3555 10.4883 46.4727 10.3555V10.3496C46.3438 10.4473 46.2539 10.5234 46.2031 10.5781ZM43.3438 5.42773V5.44531C43.3438 5.48047 43.3574 5.50977 43.3848 5.5332H43.3965C43.4902 5.49805 43.5957 5.38867 43.7129 5.20508C43.7402 5.1543 43.7539 5.10938 43.7539 5.07031V5.06445C43.75 5.05664 43.7402 5.04883 43.7246 5.04102C43.6816 5.04492 43.6074 5.11328 43.502 5.24609C43.4824 5.26172 43.4492 5.27148 43.4023 5.27539C43.3633 5.32617 43.3438 5.37695 43.3438 5.42773ZM42.8926 10.3203H42.8984C42.9219 10.3125 42.957 10.2832 43.0039 10.2324V10.2148H42.998C42.9668 10.2344 42.9316 10.2695 42.8926 10.3203ZM43.1797 9.98633L43.1914 9.99219C43.2383 9.95312 43.2617 9.91992 43.2617 9.89258V9.875C43.2305 9.875 43.2031 9.91211 43.1797 9.98633ZM42.9863 5.48047C42.9629 5.51172 42.9512 5.54883 42.9512 5.5918V5.60352C42.959 5.67383 42.9922 5.70898 43.0508 5.70898C43.1211 5.69336 43.1562 5.66992 43.1562 5.63867C43.1055 5.54883 43.0488 5.49609 42.9863 5.48047ZM43.4961 5.58008H43.502C43.5605 5.5332 43.6191 5.47266 43.6777 5.39844V5.39258C43.5566 5.49805 43.4961 5.56055 43.4961 5.58008ZM46.0684 2.83789C46.1973 2.48242 46.3027 2.21289 46.3848 2.0293C46.4004 2.00586 46.416 1.99219 46.4316 1.98828L46.4258 1.97656V1.9707C46.4258 1.83008 46.4746 1.67969 46.5723 1.51953C46.5996 1.49609 46.6211 1.48438 46.6367 1.48438H46.6426C46.709 1.48438 46.8008 1.5625 46.918 1.71875L46.9238 1.75977V1.78906C46.9238 1.92969 46.8086 2.38086 46.5781 3.14258C46.1172 4.55664 45.7051 5.99219 45.3418 7.44922C45.5332 7.22656 45.6699 7.09375 45.752 7.05078H45.7637V7.05664C45.7051 7.12305 45.5586 7.27539 45.3242 7.51367C45.3242 7.51758 45.3203 7.53516 45.3125 7.56641C45.707 7.17969 45.9043 6.9668 45.9043 6.92773C45.9746 6.86523 46.0273 6.83398 46.0625 6.83398C46.0508 6.86914 46.0449 6.88867 46.0449 6.89258C46.0918 6.87695 46.1621 6.83984 46.2559 6.78125C46.3457 6.73828 46.4316 6.7168 46.5137 6.7168H46.5371C46.7285 6.7168 46.9219 6.85156 47.1172 7.12109C47.1289 7.16406 47.1348 7.20117 47.1348 7.23242C47.1348 7.77539 46.7695 8.41992 46.0391 9.16602C45.8828 9.33008 45.7344 9.42773 45.5938 9.45898C45.7734 9.67773 45.8809 9.91406 45.916 10.168C45.9668 10.5234 46.0234 10.7012 46.0859 10.7012C46.1016 10.7012 46.1348 10.668 46.1855 10.6016H46.1797C46.1719 10.6055 46.1641 10.6074 46.1562 10.6074V10.5957C46.3164 10.4082 46.4512 10.3066 46.5605 10.291C46.7598 10.1035 46.8809 9.97461 46.9238 9.9043C46.9238 9.89648 46.9297 9.88477 46.9414 9.86914L46.9355 9.85742C46.9395 9.83398 47.0098 9.75977 47.1465 9.63477C47.2051 9.54883 47.3633 9.3125 47.6211 8.92578C47.8008 8.64844 47.918 8.50977 47.9727 8.50977C48.0352 8.50977 48.1309 8.58594 48.2598 8.73828V8.75586C48.252 8.87305 47.9707 9.32617 47.416 10.1152C46.8496 10.8887 46.4297 11.2754 46.1562 11.2754C45.9883 11.2754 45.7969 11.127 45.582 10.8301C45.5312 10.7324 45.4863 10.6035 45.4473 10.4434C45.4004 10.1777 45.3691 10.0137 45.3535 9.95117C45.291 9.76758 45.1855 9.67578 45.0371 9.67578C45.002 9.67578 44.9824 9.67969 44.9785 9.6875C44.9785 9.69141 44.9609 9.6875 44.9258 9.67578C44.875 9.67578 44.8496 9.71875 44.8496 9.80469C44.6777 10.7656 44.5918 11.5098 44.5918 12.0371C44.5918 12.1465 44.6074 12.334 44.6387 12.5996V12.6523C44.6387 12.6914 44.6016 12.7246 44.5273 12.752H44.5215C44.4707 12.752 44.3789 12.6641 44.2461 12.4883C44.125 12.332 44.0645 11.9746 44.0645 11.416C44.0645 10.5801 44.1855 9.66211 44.4277 8.66211C44.5684 8.00977 44.6914 7.56641 44.7969 7.33203C44.8477 7.18359 44.8828 7.06055 44.9023 6.96289L44.8848 6.97461L44.873 6.95703V6.93945C44.873 6.89258 44.8848 6.81641 44.9082 6.71094C44.7832 7.00781 44.6758 7.25977 44.5859 7.4668C44.3789 7.92383 44.1621 8.36719 43.9355 8.79688C43.8301 9.07031 43.7578 9.20703 43.7188 9.20703H43.6953L43.6836 9.20117C43.5781 9.37305 43.5078 9.49805 43.4727 9.57617H43.4785L43.4961 9.56445C43.5039 9.56836 43.5078 9.57227 43.5078 9.57617C43.3555 9.8418 43.1465 10.1309 42.8809 10.4434C42.541 10.8223 42.2891 11.0117 42.125 11.0117C41.9922 11 41.8164 10.8926 41.5977 10.6895C41.4844 10.5957 41.4277 10.4336 41.4277 10.2031V10.0742C41.4277 9.76172 41.5469 9.23633 41.7852 8.49805C42.0391 7.67383 42.248 7.09375 42.4121 6.75781C42.4551 6.73828 42.4883 6.72852 42.5117 6.72852C42.5898 6.72852 42.7031 6.81055 42.8516 6.97461C42.9141 7.07617 42.9453 7.18945 42.9453 7.31445C42.7109 7.79102 42.4609 8.52734 42.1953 9.52344C42.0977 9.94141 42.0488 10.2188 42.0488 10.3555C42.0527 10.4141 42.0625 10.4434 42.0781 10.4434C42.1562 10.4277 42.3242 10.2578 42.582 9.93359C42.9414 9.41016 43.252 8.89453 43.5137 8.38672C43.5996 8.26562 43.7402 8.01172 43.9355 7.625C44.2754 6.95703 44.7617 5.87695 45.3945 4.38477C45.4141 4.3418 45.6387 3.82617 46.0684 2.83789ZM43.5137 4.49023C43.7637 4.49023 44.0059 4.65625 44.2402 4.98828C44.2988 5.08594 44.3281 5.16992 44.3281 5.24023V5.30469C44.3281 5.46875 44.2383 5.6582 44.0586 5.87305C43.8008 6.13086 43.5508 6.25977 43.3086 6.25977H43.2559C43.0176 6.25977 42.791 6.10938 42.5762 5.80859C42.4785 5.68359 42.4297 5.50195 42.4297 5.26367C42.4297 5.09961 42.4668 4.98828 42.541 4.92969L42.5469 4.94727C42.543 4.95117 42.541 4.95703 42.541 4.96484H42.5469C42.668 4.85938 42.7363 4.77734 42.752 4.71875C42.9082 4.6875 43.0234 4.65625 43.0977 4.625C43.2344 4.53516 43.373 4.49023 43.5137 4.49023Z" fill="white"/>
</svg>
