<svg width="630" height="630" viewBox="0 0 630 630" fill="none" xmlns="http://www.w3.org/2000/svg">
<path d="M308.096 89.4C274.976 89.4 244.16 102.36 220.832 125.688C212.48 134.04 205.28 143.544 199.52 153.912C194.048 143.544 186.848 134.04 178.496 125.688C155.168 102.36 124.352 89.4 91.2319 89.4H71.0719V291H100.448V119.64C122.048 121.656 141.92 131.16 157.472 146.424C175.04 164.28 184.832 187.608 184.832 212.664V291H214.496V212.664C214.496 187.608 224.288 164.28 241.856 146.424C257.408 131.16 277.28 121.656 298.88 119.64V291H328.256V89.4H308.096ZM458.184 89.4C402.6 89.4 357.384 134.904 357.384 190.488V291H386.76V190.488C386.76 151.032 418.728 119.064 458.184 119.064C497.352 119.064 529.32 151.032 529.32 190.2V291H558.984V190.488C558.984 134.904 513.48 89.4 458.184 89.4ZM472.872 246.648V216.984H443.208V246.648H472.872ZM99.1823 513.624V341.4H69.8063V543H271.406V513.624H99.1823ZM329.526 543V341.4H300.15V543H329.526ZM560.25 356.376V341.4H530.586V356.376C530.586 395.544 498.618 427.512 459.162 427.512H388.026V341.4H358.65V543H388.026V457.176H459.162C498.618 457.176 530.586 489.144 530.586 528.312V543H560.25V528.312C560.25 501.528 549.594 476.184 530.586 457.176C524.826 451.416 518.778 446.52 511.866 442.488C518.778 438.168 524.826 433.272 530.586 427.512C549.594 408.504 560.25 383.16 560.25 356.376Z" fill="white"/>
<rect x="12.5" y="12.5" width="605" height="605" stroke="white" stroke-width="25"/>
</svg>
